{"glyphs":{"0":{"ha":861,"x_min":0,"x_max":0,"o":"m 363 608 l 499 608 l 499 407 l 363 407 m 90 646 l 354 1014 l 520 1014 l 771 646 l 771 375 l 506 0 l 354 0 l 90 375 m 393 76 l 467 76 l 683 396 l 683 625 l 473 938 l 399 938 l 178 625 l 178 396 "},"1":{"ha":861,"x_min":0,"x_max":0,"o":"m 99 76 l 394 76 l 394 933 l 137 842 l 137 922 l 394 1014 l 481 1014 l 481 76 l 776 76 l 776 0 l 99 0 "},"2":{"ha":861,"x_min":0,"x_max":0,"o":"m 106 97 l 614 632 l 614 824 l 447 938 l 125 938 l 139 1014 l 493 1014 l 701 864 l 701 594 l 199 76 l 750 76 l 750 0 l 141 0 "},"3":{"ha":861,"x_min":0,"x_max":0,"o":"m 118 69 l 489 69 l 669 241 l 669 349 l 503 497 l 181 497 l 181 574 l 503 574 l 614 722 l 614 819 l 489 944 l 118 944 l 132 1014 l 530 1014 l 701 846 l 701 697 l 577 541 l 757 373 l 757 207 l 530 0 l 132 0 "},"4":{"ha":861,"x_min":0,"x_max":0,"o":"m 50 363 l 480 1031 l 553 985 l 154 374 l 558 374 l 558 672 l 646 672 l 646 374 l 811 374 l 811 298 l 646 298 l 646 0 l 558 0 l 558 298 l 50 298 "},"5":{"ha":861,"x_min":0,"x_max":0,"o":"m 137 76 l 468 76 l 657 259 l 657 392 l 528 517 l 125 517 l 153 1014 l 679 1014 l 693 938 l 225 938 l 204 592 l 568 592 l 742 423 l 742 231 l 507 0 l 151 0 "},"6":{"ha":861,"x_min":0,"x_max":0,"o":"m 117 214 l 117 692 l 361 1014 l 688 1014 l 701 938 l 407 938 l 204 669 l 204 494 l 584 610 l 772 436 l 772 214 l 566 0 l 323 0 m 367 76 l 522 76 l 690 255 l 690 406 l 558 517 l 204 433 l 204 255 "},"7":{"ha":861,"x_min":0,"x_max":0,"o":"m 294 268 l 670 938 l 65 938 l 79 1014 l 726 1014 l 767 940 l 377 236 l 377 0 l 294 0 "},"8":{"ha":861,"x_min":0,"x_max":0,"o":"m 104 179 l 104 386 l 282 530 l 132 678 l 132 840 l 310 1014 l 551 1014 l 729 840 l 729 678 l 579 530 l 757 386 l 757 179 l 551 0 l 310 0 m 351 69 l 510 69 l 669 206 l 669 362 l 510 488 l 351 488 l 192 362 l 192 206 m 351 564 l 510 564 l 642 702 l 642 813 l 510 944 l 351 944 l 219 813 l 219 702 "},"9":{"ha":861,"x_min":0,"x_max":0,"o":"m 744 801 l 744 322 l 500 1 l 174 1 l 160 77 l 454 77 l 657 346 l 657 521 l 277 404 l 89 578 l 89 801 l 295 1015 l 538 1015 m 303 497 l 657 581 l 657 760 l 494 938 l 340 938 l 172 760 l 172 608 "}," ":{"ha":861,"x_min":0,"x_max":0,"o":""}," ":{"ha":861,"x_min":0,"x_max":0,"o":""},"A":{"ha":861,"x_min":0,"x_max":0,"o":"m 144 598 l 380 1014 l 481 1014 l 717 598 l 717 0 l 630 0 l 630 312 l 231 312 l 231 0 l 144 0 m 630 383 l 630 578 l 431 933 l 231 576 l 231 383 "},"Á":{"ha":861,"x_min":0,"x_max":0,"o":"m 144 598 l 380 1014 l 481 1014 l 717 598 l 717 0 l 630 0 l 630 312 l 231 312 l 231 0 l 144 0 m 630 383 l 630 578 l 431 933 l 231 576 l 231 383 m 462 1146 l 638 1308 l 540 1308 l 386 1146 "},"Ă":{"ha":861,"x_min":0,"x_max":0,"o":"m 144 598 l 380 1014 l 481 1014 l 717 598 l 717 0 l 630 0 l 630 312 l 231 312 l 231 0 l 144 0 m 630 383 l 630 578 l 431 933 l 231 576 l 231 383 m 245 1308 l 308 1308 l 308 1248 l 356 1202 l 505 1202 l 553 1248 l 553 1308 l 616 1308 l 616 1222 l 533 1141 l 328 1141 l 245 1222 "},"Â":{"ha":861,"x_min":0,"x_max":0,"o":"m 144 598 l 380 1014 l 481 1014 l 717 598 l 717 0 l 630 0 l 630 312 l 231 312 l 231 0 l 144 0 m 390 1308 l 471 1308 l 654 1146 l 563 1146 l 431 1269 l 298 1146 l 207 1146 m 630 383 l 630 578 l 431 933 l 231 576 l 231 383 "},"Ä":{"ha":861,"x_min":0,"x_max":0,"o":"m 144 598 l 380 1014 l 481 1014 l 717 598 l 717 0 l 630 0 l 630 312 l 231 312 l 231 0 l 144 0 m 260 1310 l 353 1219 l 260 1129 l 166 1219 m 630 383 l 630 578 l 431 933 l 231 576 l 231 383 m 602 1310 l 695 1219 l 602 1129 l 508 1219 "},"Ạ":{"ha":861,"x_min":0,"x_max":0,"o":"m 144 598 l 380 1014 l 481 1014 l 717 598 l 717 0 l 630 0 l 630 312 l 231 312 l 231 0 l 144 0 m 630 383 l 630 578 l 431 933 l 231 576 l 231 383 m 431 -199 l 526 -289 l 431 -379 l 335 -289 "},"À":{"ha":861,"x_min":0,"x_max":0,"o":"m 144 598 l 380 1014 l 481 1014 l 717 598 l 717 0 l 630 0 l 630 312 l 231 312 l 231 0 l 144 0 m 321 1308 l 475 1146 l 399 1146 l 224 1308 m 630 383 l 630 578 l 431 933 l 231 576 l 231 383 "},"Ā":{"ha":861,"x_min":0,"x_max":0,"o":"m 144 598 l 380 1014 l 481 1014 l 717 598 l 717 0 l 630 0 l 630 312 l 231 312 l 231 0 l 144 0 m 217 1272 l 644 1272 l 644 1202 l 217 1202 m 630 383 l 630 578 l 431 933 l 231 576 l 231 383 "},"Ą":{"ha":861,"x_min":0,"x_max":0,"o":"m 144 598 l 380 1014 l 481 1014 l 717 598 l 717 0 l 615 -105 l 615 -182 l 661 -215 l 717 -215 l 717 -278 l 640 -278 l 544 -215 l 544 -85 l 633 0 l 630 0 l 630 312 l 231 312 l 231 0 l 144 0 m 630 383 l 630 578 l 431 933 l 231 576 l 231 383 "},"Å":{"ha":861,"x_min":0,"x_max":0,"o":"m 144 598 l 373 1002 l 370 1002 l 273 1110 l 273 1203 l 370 1313 l 491 1313 l 588 1204 l 588 1111 l 491 1002 l 488 1002 l 717 598 l 717 0 l 630 0 l 630 312 l 231 312 l 231 0 l 144 0 m 630 383 l 630 578 l 431 933 l 231 576 l 231 383 m 403 1063 l 458 1063 l 523 1137 l 523 1178 l 458 1251 l 403 1251 l 338 1178 l 338 1137 "},"Ã":{"ha":861,"x_min":0,"x_max":0,"o":"m 144 598 l 380 1014 l 481 1014 l 717 598 l 717 0 l 630 0 l 630 312 l 231 312 l 231 0 l 144 0 m 190 1226 l 273 1315 l 391 1315 l 499 1202 l 562 1202 l 609 1251 l 609 1315 l 672 1315 l 672 1230 l 588 1141 l 470 1141 l 363 1253 l 299 1253 l 252 1204 l 252 1141 l 190 1141 m 630 383 l 630 578 l 431 933 l 231 576 l 231 383 "},"Æ":{"ha":861,"x_min":0,"x_max":0,"o":"m 447 312 l 169 312 l 169 0 l 81 0 l 81 598 l 303 1014 l 763 1014 l 776 938 l 535 938 l 535 541 l 726 541 l 726 468 l 535 468 l 535 76 l 797 76 l 783 0 l 447 0 m 447 383 l 447 938 l 354 938 l 169 576 l 169 383 "},"Ǽ":{"ha":861,"x_min":0,"x_max":0,"o":"m 447 312 l 169 312 l 169 0 l 81 0 l 81 598 l 303 1014 l 763 1014 l 776 938 l 535 938 l 535 541 l 726 541 l 726 468 l 535 468 l 535 76 l 797 76 l 783 0 l 447 0 m 447 383 l 447 938 l 354 938 l 169 576 l 169 383 m 573 1146 l 749 1308 l 651 1308 l 497 1146 "},"B":{"ha":861,"x_min":0,"x_max":0,"o":"m 151 1014 l 551 1014 l 715 828 l 715 686 l 579 530 l 757 365 l 757 186 l 551 0 l 151 0 m 510 69 l 669 213 l 669 341 l 510 491 l 238 491 l 238 69 m 510 560 l 628 710 l 628 801 l 510 944 l 238 944 l 238 560 "},"C":{"ha":861,"x_min":0,"x_max":0,"o":"m 90 373 l 90 648 l 354 1014 l 743 1014 l 757 938 l 403 938 l 178 625 l 178 396 l 403 76 l 757 76 l 743 0 l 354 0 "},"Ć":{"ha":861,"x_min":0,"x_max":0,"o":"m 90 373 l 90 648 l 354 1014 l 743 1014 l 757 938 l 403 938 l 178 625 l 178 396 l 403 76 l 757 76 l 743 0 l 354 0 m 517 1146 l 693 1308 l 596 1308 l 442 1146 "},"Č":{"ha":861,"x_min":0,"x_max":0,"o":"m 90 373 l 90 648 l 354 1014 l 743 1014 l 757 938 l 403 938 l 178 625 l 178 396 l 403 76 l 757 76 l 743 0 l 354 0 m 446 1146 l 526 1146 l 710 1308 l 619 1308 l 486 1184 l 353 1308 l 263 1308 "},"Ç":{"ha":861,"x_min":0,"x_max":0,"o":"m 90 373 l 90 648 l 354 1014 l 743 1014 l 757 938 l 403 938 l 178 625 l 178 396 l 403 76 l 757 76 l 743 0 l 533 0 l 533 -117 l 567 -117 l 663 -194 l 663 -316 l 568 -392 l 440 -392 l 440 -330 l 542 -330 l 601 -281 l 601 -228 l 542 -180 l 468 -180 l 468 0 l 354 0 "},"Ĉ":{"ha":861,"x_min":0,"x_max":0,"o":"m 90 373 l 90 648 l 354 1014 l 743 1014 l 757 938 l 403 938 l 178 625 l 178 396 l 403 76 l 757 76 l 743 0 l 354 0 m 446 1308 l 526 1308 l 710 1146 l 619 1146 l 486 1269 l 353 1146 l 263 1146 "},"Ċ":{"ha":861,"x_min":0,"x_max":0,"o":"m 90 373 l 90 648 l 354 1014 l 743 1014 l 757 938 l 403 938 l 178 625 l 178 396 l 403 76 l 757 76 l 743 0 l 354 0 m 486 1310 l 581 1219 l 486 1129 l 391 1219 "},"D":{"ha":861,"x_min":0,"x_max":0,"o":"m 144 1014 l 507 1014 l 771 646 l 771 375 l 507 0 l 144 0 m 461 76 l 683 396 l 683 625 l 461 938 l 231 938 l 231 76 "},"Ð":{"ha":861,"x_min":0,"x_max":0,"o":"m 28 566 l 144 566 l 144 1014 l 507 1014 l 771 646 l 771 375 l 507 0 l 144 0 l 144 490 l 28 490 m 461 76 l 683 396 l 683 625 l 461 938 l 231 938 l 231 566 l 467 566 l 467 490 l 231 490 l 231 76 "},"Ď":{"ha":861,"x_min":0,"x_max":0,"o":"m 144 1014 l 507 1014 l 771 646 l 771 375 l 507 0 l 144 0 m 332 1146 l 413 1146 l 596 1308 l 505 1308 l 372 1184 l 240 1308 l 149 1308 m 461 76 l 683 396 l 683 625 l 461 938 l 231 938 l 231 76 "},"Đ":{"ha":861,"x_min":0,"x_max":0,"o":"m 28 566 l 144 566 l 144 1014 l 507 1014 l 771 646 l 771 375 l 507 0 l 144 0 l 144 490 l 28 490 m 461 76 l 683 396 l 683 625 l 461 938 l 231 938 l 231 566 l 467 566 l 467 490 l 231 490 l 231 76 "},"E":{"ha":861,"x_min":0,"x_max":0,"o":"m 151 1014 l 707 1014 l 721 938 l 238 938 l 238 541 l 635 541 l 635 468 l 238 468 l 238 76 l 749 76 l 735 0 l 151 0 "},"É":{"ha":861,"x_min":0,"x_max":0,"o":"m 151 1014 l 707 1014 l 721 938 l 238 938 l 238 541 l 635 541 l 635 468 l 238 468 l 238 76 l 749 76 l 735 0 l 151 0 m 483 1146 l 658 1308 l 561 1308 l 407 1146 "},"Ĕ":{"ha":861,"x_min":0,"x_max":0,"o":"m 151 1014 l 707 1014 l 721 938 l 238 938 l 238 541 l 635 541 l 635 468 l 238 468 l 238 76 l 749 76 l 735 0 l 151 0 m 266 1308 l 328 1308 l 328 1248 l 377 1202 l 526 1202 l 574 1248 l 574 1308 l 637 1308 l 637 1222 l 553 1141 l 349 1141 l 266 1222 "},"Ě":{"ha":861,"x_min":0,"x_max":0,"o":"m 151 1014 l 707 1014 l 721 938 l 238 938 l 238 541 l 635 541 l 635 468 l 238 468 l 238 76 l 749 76 l 735 0 l 151 0 m 411 1146 l 492 1146 l 675 1308 l 584 1308 l 451 1184 l 319 1308 l 228 1308 "},"Ê":{"ha":861,"x_min":0,"x_max":0,"o":"m 151 1014 l 707 1014 l 721 938 l 238 938 l 238 541 l 635 541 l 635 468 l 238 468 l 238 76 l 749 76 l 735 0 l 151 0 m 411 1308 l 492 1308 l 675 1146 l 584 1146 l 451 1269 l 319 1146 l 228 1146 "},"Ë":{"ha":861,"x_min":0,"x_max":0,"o":"m 151 1014 l 707 1014 l 721 938 l 238 938 l 238 541 l 635 541 l 635 468 l 238 468 l 238 76 l 749 76 l 735 0 l 151 0 m 281 1310 l 374 1219 l 281 1129 l 187 1219 m 623 1310 l 716 1219 l 623 1129 l 529 1219 "},"Ė":{"ha":861,"x_min":0,"x_max":0,"o":"m 151 1014 l 707 1014 l 721 938 l 238 938 l 238 541 l 635 541 l 635 468 l 238 468 l 238 76 l 749 76 l 735 0 l 151 0 m 451 1310 l 547 1219 l 451 1129 l 356 1219 "},"Ẹ":{"ha":861,"x_min":0,"x_max":0,"o":"m 151 1014 l 707 1014 l 721 938 l 238 938 l 238 541 l 635 541 l 635 468 l 238 468 l 238 76 l 749 76 l 735 0 l 151 0 m 431 -199 l 526 -289 l 431 -379 l 335 -289 "},"È":{"ha":861,"x_min":0,"x_max":0,"o":"m 151 1014 l 707 1014 l 721 938 l 238 938 l 238 541 l 635 541 l 635 468 l 238 468 l 238 76 l 749 76 l 735 0 l 151 0 m 342 1308 l 496 1146 l 420 1146 l 244 1308 "},"Ē":{"ha":861,"x_min":0,"x_max":0,"o":"m 151 1014 l 707 1014 l 721 938 l 238 938 l 238 541 l 635 541 l 635 468 l 238 468 l 238 76 l 749 76 l 735 0 l 151 0 m 238 1272 l 665 1272 l 665 1202 l 238 1202 "},"Ę":{"ha":861,"x_min":0,"x_max":0,"o":"m 151 1014 l 707 1014 l 721 938 l 238 938 l 238 541 l 635 541 l 635 468 l 238 468 l 238 76 l 749 76 l 735 0 l 632 -105 l 632 -182 l 678 -215 l 735 -215 l 735 -278 l 657 -278 l 561 -215 l 561 -85 l 651 0 l 151 0 "},"Ẽ":{"ha":861,"x_min":0,"x_max":0,"o":"m 151 1014 l 707 1014 l 721 938 l 238 938 l 238 541 l 635 541 l 635 468 l 238 468 l 238 76 l 749 76 l 735 0 l 151 0 m 210 1226 l 294 1315 l 412 1315 l 519 1202 l 583 1202 l 630 1251 l 630 1315 l 692 1315 l 692 1230 l 609 1141 l 491 1141 l 383 1253 l 320 1253 l 273 1204 l 273 1141 l 210 1141 "},"Ə":{"ha":861,"x_min":0,"x_max":0,"o":"m 90 128 l 90 438 l 218 565 l 678 565 l 678 625 l 456 938 l 126 938 l 140 1014 l 501 1014 l 765 646 l 765 375 l 501 0 l 210 0 m 251 76 l 456 76 l 678 396 l 678 492 l 260 492 l 167 403 l 167 164 "},"F":{"ha":861,"x_min":0,"x_max":0,"o":"m 158 1014 l 742 1014 l 756 944 l 245 944 l 245 504 l 670 504 l 670 435 l 245 435 l 245 0 l 158 0 "},"G":{"ha":861,"x_min":0,"x_max":0,"o":"m 90 375 l 90 646 l 354 1014 l 715 1014 l 729 938 l 400 938 l 178 625 l 178 396 l 400 76 l 646 76 l 688 122 l 688 458 l 456 458 l 456 530 l 765 530 l 765 79 l 694 0 l 354 0 "},"Ğ":{"ha":861,"x_min":0,"x_max":0,"o":"m 90 375 l 90 646 l 354 1014 l 715 1014 l 729 938 l 400 938 l 178 625 l 178 396 l 400 76 l 646 76 l 688 122 l 688 458 l 456 458 l 456 530 l 765 530 l 765 79 l 694 0 l 354 0 m 294 1308 l 356 1308 l 356 1248 l 405 1202 l 553 1202 l 602 1248 l 602 1308 l 665 1308 l 665 1222 l 581 1141 l 377 1141 l 294 1222 "},"Ǧ":{"ha":861,"x_min":0,"x_max":0,"o":"m 90 375 l 90 646 l 354 1014 l 715 1014 l 729 938 l 400 938 l 178 625 l 178 396 l 400 76 l 646 76 l 688 122 l 688 458 l 456 458 l 456 530 l 765 530 l 765 79 l 694 0 l 354 0 m 439 1146 l 519 1146 l 703 1308 l 612 1308 l 479 1184 l 347 1308 l 256 1308 "},"Ĝ":{"ha":861,"x_min":0,"x_max":0,"o":"m 90 375 l 90 646 l 354 1014 l 715 1014 l 729 938 l 400 938 l 178 625 l 178 396 l 400 76 l 646 76 l 688 122 l 688 458 l 456 458 l 456 530 l 765 530 l 765 79 l 694 0 l 354 0 m 439 1308 l 519 1308 l 703 1146 l 612 1146 l 479 1269 l 347 1146 l 256 1146 "},"Ģ":{"ha":861,"x_min":0,"x_max":0,"o":"m 90 375 l 90 646 l 354 1014 l 715 1014 l 729 938 l 400 938 l 178 625 l 178 396 l 400 76 l 646 76 l 688 122 l 688 458 l 456 458 l 456 530 l 765 530 l 765 79 l 694 0 l 354 0 m 505 -366 l 428 -366 l 428 -217 l 578 -217 l 578 -366 l 460 -519 l 408 -491 "},"Ġ":{"ha":861,"x_min":0,"x_max":0,"o":"m 90 375 l 90 646 l 354 1014 l 715 1014 l 729 938 l 400 938 l 178 625 l 178 396 l 400 76 l 646 76 l 688 122 l 688 458 l 456 458 l 456 530 l 765 530 l 765 79 l 694 0 l 354 0 m 479 1310 l 574 1219 l 479 1129 l 384 1219 "},"H":{"ha":861,"x_min":0,"x_max":0,"o":"m 630 492 l 231 492 l 231 0 l 144 0 l 144 1014 l 231 1014 l 231 563 l 630 563 l 630 1014 l 717 1014 l 717 0 l 630 0 "},"Ħ":{"ha":861,"x_min":0,"x_max":0,"o":"m 28 842 l 144 842 l 144 1014 l 231 1014 l 231 842 l 630 842 l 630 1014 l 717 1014 l 717 842 l 833 842 l 833 765 l 717 765 l 717 0 l 630 0 l 630 492 l 231 492 l 231 0 l 144 0 l 144 765 l 28 765 m 630 563 l 630 765 l 231 765 l 231 563 "},"Ĥ":{"ha":861,"x_min":0,"x_max":0,"o":"m 630 492 l 231 492 l 231 0 l 144 0 l 144 1014 l 231 1014 l 231 563 l 630 563 l 630 1014 l 717 1014 l 717 0 l 630 0 m 390 1308 l 471 1308 l 654 1146 l 563 1146 l 431 1269 l 298 1146 l 207 1146 "},"I":{"ha":861,"x_min":0,"x_max":0,"o":"m 106 76 l 380 76 l 380 938 l 106 938 l 119 1014 l 742 1014 l 756 938 l 467 938 l 467 76 l 756 76 l 742 0 l 119 0 "},"Ĳ":{"ha":861,"x_min":0,"x_max":0,"o":"m 145 1014 l 233 1014 l 233 451 l 145 451 m 144 278 l 231 278 l 231 175 l 375 76 l 479 76 l 630 175 l 630 938 l 377 938 l 391 1014 l 717 1014 l 717 138 l 530 0 l 324 0 l 144 138 "},"Í":{"ha":861,"x_min":0,"x_max":0,"o":"m 106 76 l 380 76 l 380 938 l 106 938 l 119 1014 l 742 1014 l 756 938 l 467 938 l 467 76 l 756 76 l 742 0 l 119 0 m 462 1146 l 638 1308 l 540 1308 l 386 1146 "},"Ĭ":{"ha":861,"x_min":0,"x_max":0,"o":"m 106 76 l 380 76 l 380 938 l 106 938 l 119 1014 l 742 1014 l 756 938 l 467 938 l 467 76 l 756 76 l 742 0 l 119 0 m 245 1308 l 308 1308 l 308 1248 l 356 1202 l 505 1202 l 553 1248 l 553 1308 l 616 1308 l 616 1222 l 533 1141 l 328 1141 l 245 1222 "},"Î":{"ha":861,"x_min":0,"x_max":0,"o":"m 106 76 l 380 76 l 380 938 l 106 938 l 119 1014 l 742 1014 l 756 938 l 467 938 l 467 76 l 756 76 l 742 0 l 119 0 m 390 1308 l 471 1308 l 654 1146 l 563 1146 l 431 1269 l 298 1146 l 207 1146 "},"Ï":{"ha":861,"x_min":0,"x_max":0,"o":"m 106 76 l 380 76 l 380 938 l 106 938 l 119 1014 l 742 1014 l 756 938 l 467 938 l 467 76 l 756 76 l 742 0 l 119 0 m 260 1310 l 353 1219 l 260 1129 l 166 1219 m 602 1310 l 695 1219 l 602 1129 l 508 1219 "},"İ":{"ha":861,"x_min":0,"x_max":0,"o":"m 106 76 l 380 76 l 380 938 l 106 938 l 119 1014 l 742 1014 l 756 938 l 467 938 l 467 76 l 756 76 l 742 0 l 119 0 m 431 1310 l 526 1219 l 431 1129 l 335 1219 "},"Ị":{"ha":861,"x_min":0,"x_max":0,"o":"m 106 76 l 380 76 l 380 938 l 106 938 l 119 1014 l 742 1014 l 756 938 l 467 938 l 467 76 l 756 76 l 742 0 l 119 0 m 431 -199 l 526 -289 l 431 -379 l 335 -289 "},"Ì":{"ha":861,"x_min":0,"x_max":0,"o":"m 106 76 l 380 76 l 380 938 l 106 938 l 119 1014 l 742 1014 l 756 938 l 467 938 l 467 76 l 756 76 l 742 0 l 119 0 m 321 1308 l 475 1146 l 399 1146 l 224 1308 "},"Ī":{"ha":861,"x_min":0,"x_max":0,"o":"m 106 76 l 380 76 l 380 938 l 106 938 l 119 1014 l 742 1014 l 756 938 l 467 938 l 467 76 l 756 76 l 742 0 l 119 0 m 217 1272 l 644 1272 l 644 1202 l 217 1202 "},"Į":{"ha":861,"x_min":0,"x_max":0,"o":"m 106 76 l 380 76 l 380 938 l 106 938 l 119 1014 l 742 1014 l 756 938 l 467 938 l 467 76 l 756 76 l 742 0 l 474 0 l 372 -105 l 372 -182 l 418 -215 l 474 -215 l 474 -278 l 397 -278 l 301 -215 l 301 -85 l 390 0 l 119 0 "},"Ĩ":{"ha":861,"x_min":0,"x_max":0,"o":"m 106 76 l 380 76 l 380 938 l 106 938 l 119 1014 l 742 1014 l 756 938 l 467 938 l 467 76 l 756 76 l 742 0 l 119 0 m 190 1226 l 273 1315 l 391 1315 l 499 1202 l 562 1202 l 609 1251 l 609 1315 l 672 1315 l 672 1230 l 588 1141 l 470 1141 l 363 1253 l 299 1253 l 252 1204 l 252 1141 l 190 1141 "},"J":{"ha":861,"x_min":0,"x_max":0,"o":"m 144 340 l 144 540 l 231 540 l 231 362 l 437 76 l 630 359 l 630 938 l 210 938 l 224 1014 l 717 1014 l 717 340 l 488 0 l 387 0 "},"Ĵ":{"ha":861,"x_min":0,"x_max":0,"o":"m 144 340 l 144 540 l 231 540 l 231 362 l 437 76 l 630 359 l 630 938 l 210 938 l 224 1014 l 717 1014 l 717 340 l 488 0 l 387 0 m 410 1308 l 491 1308 l 674 1146 l 583 1146 l 451 1269 l 318 1146 l 227 1146 "},"K":{"ha":861,"x_min":0,"x_max":0,"o":"m 644 165 l 376 486 l 238 486 l 238 0 l 151 0 l 151 1014 l 238 1014 l 238 559 l 399 559 l 644 849 l 644 1014 l 731 1014 l 731 829 l 460 521 l 731 185 l 731 0 l 644 0 "},"Ķ":{"ha":861,"x_min":0,"x_max":0,"o":"m 644 165 l 376 486 l 238 486 l 238 0 l 151 0 l 151 1014 l 238 1014 l 238 559 l 399 559 l 644 849 l 644 1014 l 731 1014 l 731 829 l 460 521 l 731 185 l 731 0 l 644 0 m 442 -366 l 366 -366 l 366 -217 l 515 -217 l 515 -366 l 398 -519 l 346 -491 "},"L":{"ha":861,"x_min":0,"x_max":0,"o":"m 144 1014 l 231 1014 l 231 76 l 776 76 l 763 0 l 144 0 "},"Ĺ":{"ha":861,"x_min":0,"x_max":0,"o":"m 144 1014 l 231 1014 l 231 76 l 776 76 l 763 0 l 144 0 m 235 1146 l 410 1308 l 313 1308 l 159 1146 "},"Ľ":{"ha":861,"x_min":0,"x_max":0,"o":"m 144 1014 l 231 1014 l 231 76 l 776 76 l 763 0 l 144 0 m 405 1075 l 489 1075 l 460 842 l 393 842 "},"Ļ":{"ha":861,"x_min":0,"x_max":0,"o":"m 144 1014 l 231 1014 l 231 76 l 776 76 l 763 0 l 144 0 m 442 -366 l 366 -366 l 366 -217 l 515 -217 l 515 -366 l 398 -519 l 346 -491 "},"Ŀ":{"ha":861,"x_min":0,"x_max":0,"o":"m 144 1014 l 231 1014 l 231 76 l 776 76 l 763 0 l 144 0 m 631 652 l 726 562 l 631 472 l 536 562 "},"Ł":{"ha":861,"x_min":0,"x_max":0,"o":"m 14 488 l 144 551 l 144 1014 l 231 1014 l 231 594 l 513 731 l 513 651 l 231 514 l 231 76 l 776 76 l 763 0 l 144 0 l 144 471 l 14 408 "},"M":{"ha":861,"x_min":0,"x_max":0,"o":"m 113 1013 l 208 1013 l 428 391 l 442 391 l 656 1013 l 748 1013 l 748 0 l 663 0 l 663 789 l 653 789 l 467 270 l 394 270 l 203 789 l 196 789 l 196 0 l 113 0 "},"N":{"ha":861,"x_min":0,"x_max":0,"o":"m 144 1014 l 255 1014 l 626 183 l 634 183 l 634 1015 l 717 1015 l 717 1 l 617 1 l 235 861 l 227 861 l 227 0 l 144 0 "},"Ń":{"ha":861,"x_min":0,"x_max":0,"o":"m 144 1014 l 255 1014 l 626 183 l 634 183 l 634 1015 l 717 1015 l 717 1 l 617 1 l 235 861 l 227 861 l 227 0 l 144 0 m 462 1146 l 638 1308 l 540 1308 l 386 1146 "},"Ň":{"ha":861,"x_min":0,"x_max":0,"o":"m 144 1014 l 255 1014 l 626 183 l 634 183 l 634 1015 l 717 1015 l 717 1 l 617 1 l 235 861 l 227 861 l 227 0 l 144 0 m 390 1146 l 471 1146 l 654 1308 l 563 1308 l 431 1184 l 298 1308 l 207 1308 "},"Ņ":{"ha":861,"x_min":0,"x_max":0,"o":"m 144 1014 l 255 1014 l 626 183 l 634 183 l 634 1015 l 717 1015 l 717 1 l 617 1 l 235 861 l 227 861 l 227 0 l 144 0 m 442 -366 l 366 -366 l 366 -217 l 515 -217 l 515 -366 l 398 -519 l 346 -491 "},"Ɲ":{"ha":861,"x_min":0,"x_max":0,"o":"m 120 -278 l -4 -278 l -18 -210 l 76 -210 l 144 -112 l 144 1014 l 255 1014 l 626 183 l 634 183 l 634 1015 l 717 1015 l 717 1 l 617 1 l 235 861 l 227 861 l 227 -133 "},"Ñ":{"ha":861,"x_min":0,"x_max":0,"o":"m 144 1014 l 255 1014 l 626 183 l 634 183 l 634 1015 l 717 1015 l 717 1 l 617 1 l 235 861 l 227 861 l 227 0 l 144 0 m 190 1226 l 273 1315 l 391 1315 l 499 1202 l 562 1202 l 609 1251 l 609 1315 l 672 1315 l 672 1230 l 588 1141 l 470 1141 l 363 1253 l 299 1253 l 252 1204 l 252 1141 l 190 1141 "},"Ŋ":{"ha":861,"x_min":0,"x_max":0,"o":"m 499 -278 l 485 -210 l 578 -210 l 647 -112 l 647 -49 l 224 867 l 215 867 l 215 0 l 132 0 l 132 1014 l 236 1014 l 638 172 l 646 172 l 646 1014 l 729 1014 l 729 -133 l 623 -278 "},"O":{"ha":861,"x_min":0,"x_max":0,"o":"m 90 375 l 90 646 l 354 1014 l 520 1014 l 771 646 l 771 375 l 506 0 l 354 0 m 393 76 l 467 76 l 683 396 l 683 625 l 473 938 l 399 938 l 178 625 l 178 396 "},"Ó":{"ha":861,"x_min":0,"x_max":0,"o":"m 90 375 l 90 646 l 354 1014 l 520 1014 l 771 646 l 771 375 l 506 0 l 354 0 m 393 76 l 467 76 l 683 396 l 683 625 l 473 938 l 399 938 l 178 625 l 178 396 m 462 1146 l 638 1308 l 540 1308 l 386 1146 "},"Ŏ":{"ha":861,"x_min":0,"x_max":0,"o":"m 90 375 l 90 646 l 354 1014 l 520 1014 l 771 646 l 771 375 l 506 0 l 354 0 m 393 76 l 467 76 l 683 396 l 683 625 l 473 938 l 399 938 l 178 625 l 178 396 m 245 1308 l 308 1308 l 308 1248 l 356 1202 l 505 1202 l 553 1248 l 553 1308 l 616 1308 l 616 1222 l 533 1141 l 328 1141 l 245 1222 "},"Ô":{"ha":861,"x_min":0,"x_max":0,"o":"m 90 375 l 90 646 l 354 1014 l 520 1014 l 771 646 l 771 375 l 506 0 l 354 0 m 393 76 l 467 76 l 683 396 l 683 625 l 473 938 l 399 938 l 178 625 l 178 396 m 390 1308 l 471 1308 l 654 1146 l 563 1146 l 431 1269 l 298 1146 l 207 1146 "},"Ö":{"ha":861,"x_min":0,"x_max":0,"o":"m 90 375 l 90 646 l 354 1014 l 520 1014 l 771 646 l 771 375 l 506 0 l 354 0 m 260 1310 l 353 1219 l 260 1129 l 166 1219 m 393 76 l 467 76 l 683 396 l 683 625 l 473 938 l 399 938 l 178 625 l 178 396 m 602 1310 l 695 1219 l 602 1129 l 508 1219 "},"Ọ":{"ha":861,"x_min":0,"x_max":0,"o":"m 90 375 l 90 646 l 354 1014 l 520 1014 l 771 646 l 771 375 l 506 0 l 354 0 m 393 76 l 467 76 l 683 396 l 683 625 l 473 938 l 399 938 l 178 625 l 178 396 m 431 -199 l 526 -289 l 431 -379 l 335 -289 "},"Ò":{"ha":861,"x_min":0,"x_max":0,"o":"m 90 375 l 90 646 l 354 1014 l 520 1014 l 771 646 l 771 375 l 506 0 l 354 0 m 393 76 l 467 76 l 683 396 l 683 625 l 473 938 l 399 938 l 178 625 l 178 396 m 321 1308 l 475 1146 l 399 1146 l 224 1308 "},"Ő":{"ha":861,"x_min":0,"x_max":0,"o":"m 90 375 l 90 646 l 354 1014 l 520 1014 l 771 646 l 771 375 l 506 0 l 354 0 m 393 76 l 467 76 l 683 396 l 683 625 l 473 938 l 399 938 l 178 625 l 178 396 m 367 1308 l 456 1308 l 335 1146 l 265 1146 m 617 1308 l 708 1308 l 585 1146 l 516 1146 "},"Ō":{"ha":861,"x_min":0,"x_max":0,"o":"m 90 375 l 90 646 l 354 1014 l 520 1014 l 771 646 l 771 375 l 506 0 l 354 0 m 393 76 l 467 76 l 683 396 l 683 625 l 473 938 l 399 938 l 178 625 l 178 396 m 217 1272 l 644 1272 l 644 1202 l 217 1202 "},"Ǫ":{"ha":861,"x_min":0,"x_max":0,"o":"m 90 375 l 90 646 l 354 1014 l 520 1014 l 771 646 l 771 375 l 506 0 l 403 -105 l 403 -182 l 450 -215 l 506 -215 l 506 -278 l 428 -278 l 333 -215 l 333 -85 l 422 0 l 354 0 m 393 76 l 467 76 l 683 396 l 683 625 l 473 938 l 399 938 l 178 625 l 178 396 "},"Ø":{"ha":861,"x_min":0,"x_max":0,"o":"m 83 -9 l 208 208 l 90 375 l 90 646 l 354 1014 l 520 1014 l 603 893 l 705 1069 l 781 1026 l 658 813 l 771 646 l 771 375 l 506 0 l 354 0 l 263 130 l 158 -52 m 256 280 l 558 810 l 473 938 l 399 938 l 178 625 l 178 396 m 393 76 l 467 76 l 683 396 l 683 625 l 608 738 l 305 207 "},"Ǿ":{"ha":861,"x_min":0,"x_max":0,"o":"m 83 -9 l 208 208 l 90 375 l 90 646 l 354 1014 l 520 1014 l 603 893 l 705 1069 l 781 1026 l 658 813 l 771 646 l 771 375 l 506 0 l 354 0 l 263 130 l 158 -52 m 256 280 l 558 810 l 473 938 l 399 938 l 178 625 l 178 396 m 393 76 l 467 76 l 683 396 l 683 625 l 608 738 l 305 207 m 462 1146 l 638 1308 l 540 1308 l 386 1146 "},"Õ":{"ha":861,"x_min":0,"x_max":0,"o":"m 90 375 l 90 646 l 354 1014 l 520 1014 l 771 646 l 771 375 l 506 0 l 354 0 m 393 76 l 467 76 l 683 396 l 683 625 l 473 938 l 399 938 l 178 625 l 178 396 m 190 1226 l 273 1315 l 391 1315 l 499 1202 l 562 1202 l 609 1251 l 609 1315 l 672 1315 l 672 1230 l 588 1141 l 470 1141 l 363 1253 l 299 1253 l 252 1204 l 252 1141 l 190 1141 "},"Œ":{"ha":861,"x_min":0,"x_max":0,"o":"m 81 375 l 81 646 l 317 1014 l 763 1014 l 776 938 l 535 938 l 535 541 l 726 541 l 726 468 l 535 468 l 535 76 l 797 76 l 783 0 l 317 0 m 363 76 l 447 76 l 447 938 l 363 938 l 169 625 l 169 396 "},"P":{"ha":861,"x_min":0,"x_max":0,"o":"m 151 1014 l 551 1014 l 757 828 l 757 631 l 545 394 l 238 394 l 238 0 l 151 0 m 503 463 l 669 655 l 669 801 l 510 944 l 238 944 l 238 463 "},"Þ":{"ha":861,"x_min":0,"x_max":0,"o":"m 132 1014 l 219 1014 l 219 838 l 551 838 l 757 644 l 757 447 l 545 217 l 219 217 l 219 0 l 132 0 m 503 287 l 669 472 l 669 617 l 510 768 l 219 768 l 219 287 "},"Q":{"ha":861,"x_min":0,"x_max":0,"o":"m 90 375 l 90 646 l 354 1014 l 520 1014 l 771 646 l 771 375 l 506 0 l 447 0 l 572 -185 l 513 -224 m 394 76 l 467 76 l 683 396 l 683 625 l 467 938 l 393 938 l 178 625 l 178 396 "},"R":{"ha":861,"x_min":0,"x_max":0,"o":"m 151 1014 l 537 1014 l 750 814 l 750 651 l 539 449 l 731 185 l 731 0 l 644 0 l 644 165 l 445 442 l 238 442 l 238 0 l 151 0 m 496 512 l 663 676 l 663 787 l 496 944 l 238 944 l 238 512 "},"Ŕ":{"ha":861,"x_min":0,"x_max":0,"o":"m 151 1014 l 537 1014 l 750 814 l 750 651 l 539 449 l 731 185 l 731 0 l 644 0 l 644 165 l 445 442 l 238 442 l 238 0 l 151 0 m 496 512 l 663 676 l 663 787 l 496 944 l 238 944 l 238 512 m 462 1146 l 638 1308 l 540 1308 l 386 1146 "},"Ř":{"ha":861,"x_min":0,"x_max":0,"o":"m 151 1014 l 537 1014 l 750 814 l 750 651 l 539 449 l 731 185 l 731 0 l 644 0 l 644 165 l 445 442 l 238 442 l 238 0 l 151 0 m 390 1146 l 471 1146 l 654 1308 l 563 1308 l 431 1184 l 298 1308 l 207 1308 m 496 512 l 663 676 l 663 787 l 496 944 l 238 944 l 238 512 "},"Ŗ":{"ha":861,"x_min":0,"x_max":0,"o":"m 151 1014 l 537 1014 l 750 814 l 750 651 l 539 449 l 731 185 l 731 0 l 644 0 l 644 165 l 445 442 l 238 442 l 238 0 l 151 0 m 496 512 l 663 676 l 663 787 l 496 944 l 238 944 l 238 512 m 442 -366 l 366 -366 l 366 -217 l 515 -217 l 515 -366 l 398 -519 l 346 -491 "},"S":{"ha":861,"x_min":0,"x_max":0,"o":"m 118 68 l 529 68 l 658 230 l 658 287 l 125 683 l 125 813 l 292 1014 l 701 1014 l 715 946 l 332 946 l 203 784 l 203 727 l 736 331 l 736 201 l 569 0 l 132 0 "},"Ś":{"ha":861,"x_min":0,"x_max":0,"o":"m 118 68 l 529 68 l 658 230 l 658 287 l 125 683 l 125 813 l 292 1014 l 701 1014 l 715 946 l 332 946 l 203 784 l 203 727 l 736 331 l 736 201 l 569 0 l 132 0 m 490 1146 l 665 1308 l 568 1308 l 414 1146 "},"Š":{"ha":861,"x_min":0,"x_max":0,"o":"m 118 68 l 529 68 l 658 230 l 658 287 l 125 683 l 125 813 l 292 1014 l 701 1014 l 715 946 l 332 946 l 203 784 l 203 727 l 736 331 l 736 201 l 569 0 l 132 0 m 418 1146 l 499 1146 l 682 1308 l 591 1308 l 458 1184 l 326 1308 l 235 1308 "},"Ş":{"ha":861,"x_min":0,"x_max":0,"o":"m 118 68 l 529 68 l 658 230 l 658 287 l 125 683 l 125 813 l 292 1014 l 701 1014 l 715 946 l 332 946 l 203 784 l 203 727 l 736 331 l 736 201 l 569 0 l 450 0 l 450 -117 l 484 -117 l 579 -194 l 579 -316 l 485 -392 l 357 -392 l 357 -330 l 458 -330 l 518 -281 l 518 -228 l 458 -180 l 385 -180 l 385 0 l 132 0 "},"Ŝ":{"ha":861,"x_min":0,"x_max":0,"o":"m 118 68 l 529 68 l 658 230 l 658 287 l 125 683 l 125 813 l 292 1014 l 701 1014 l 715 946 l 332 946 l 203 784 l 203 727 l 736 331 l 736 201 l 569 0 l 132 0 m 418 1308 l 499 1308 l 682 1146 l 591 1146 l 458 1269 l 326 1146 l 235 1146 "},"Ș":{"ha":861,"x_min":0,"x_max":0,"o":"m 118 68 l 529 68 l 658 230 l 658 287 l 125 683 l 125 813 l 292 1014 l 701 1014 l 715 946 l 332 946 l 203 784 l 203 727 l 736 331 l 736 201 l 569 0 l 132 0 m 442 -366 l 366 -366 l 366 -217 l 515 -217 l 515 -366 l 398 -519 l 346 -491 "},"ẞ":{"ha":861,"x_min":0,"x_max":0,"o":"m 696 965 l 525 588 l 757 414 l 757 193 l 551 0 l 370 0 l 370 69 l 510 69 l 669 220 l 669 390 l 454 547 l 454 616 l 603 944 l 238 944 l 238 0 l 151 0 l 151 1014 l 696 1014 "},"T":{"ha":861,"x_min":0,"x_max":0,"o":"m 380 938 l 71 938 l 81 1014 l 780 1014 l 790 938 l 467 938 l 467 0 l 380 0 "},"Ŧ":{"ha":861,"x_min":0,"x_max":0,"o":"m 190 566 l 380 566 l 380 938 l 71 938 l 81 1014 l 780 1014 l 790 938 l 467 938 l 467 566 l 671 566 l 671 490 l 467 490 l 467 0 l 380 0 l 380 490 l 190 490 "},"Ť":{"ha":861,"x_min":0,"x_max":0,"o":"m 380 938 l 71 938 l 81 1014 l 780 1014 l 790 938 l 467 938 l 467 0 l 380 0 m 390 1146 l 471 1146 l 654 1308 l 563 1308 l 431 1184 l 298 1308 l 207 1308 "},"Ţ":{"ha":861,"x_min":0,"x_max":0,"o":"m 81 1014 l 780 1014 l 790 938 l 467 938 l 467 0 l 444 0 l 444 -117 l 478 -117 l 573 -194 l 573 -316 l 478 -392 l 351 -392 l 351 -330 l 452 -330 l 512 -281 l 512 -228 l 452 -180 l 378 -180 l 378 33 l 380 33 l 380 938 l 71 938 "},"Ț":{"ha":861,"x_min":0,"x_max":0,"o":"m 380 938 l 71 938 l 81 1014 l 780 1014 l 790 938 l 467 938 l 467 0 l 380 0 m 436 -366 l 360 -366 l 360 -217 l 509 -217 l 509 -366 l 392 -519 l 340 -491 "},"U":{"ha":861,"x_min":0,"x_max":0,"o":"m 144 138 l 144 1014 l 231 1014 l 231 175 l 306 76 l 556 76 l 630 175 l 630 1014 l 717 1014 l 717 138 l 606 0 l 255 0 "},"Ú":{"ha":861,"x_min":0,"x_max":0,"o":"m 144 138 l 144 1014 l 231 1014 l 231 175 l 306 76 l 556 76 l 630 175 l 630 1014 l 717 1014 l 717 138 l 606 0 l 255 0 m 462 1146 l 638 1308 l 540 1308 l 386 1146 "},"Ŭ":{"ha":861,"x_min":0,"x_max":0,"o":"m 144 138 l 144 1014 l 231 1014 l 231 175 l 306 76 l 556 76 l 630 175 l 630 1014 l 717 1014 l 717 138 l 606 0 l 255 0 m 245 1308 l 308 1308 l 308 1248 l 356 1202 l 505 1202 l 553 1248 l 553 1308 l 616 1308 l 616 1222 l 533 1141 l 328 1141 l 245 1222 "},"Û":{"ha":861,"x_min":0,"x_max":0,"o":"m 144 138 l 144 1014 l 231 1014 l 231 175 l 306 76 l 556 76 l 630 175 l 630 1014 l 717 1014 l 717 138 l 606 0 l 255 0 m 390 1308 l 471 1308 l 654 1146 l 563 1146 l 431 1269 l 298 1146 l 207 1146 "},"Ü":{"ha":861,"x_min":0,"x_max":0,"o":"m 144 138 l 144 1014 l 231 1014 l 231 175 l 306 76 l 556 76 l 630 175 l 630 1014 l 717 1014 l 717 138 l 606 0 l 255 0 m 260 1310 l 353 1219 l 260 1129 l 166 1219 m 602 1310 l 695 1219 l 602 1129 l 508 1219 "},"Ụ":{"ha":861,"x_min":0,"x_max":0,"o":"m 144 138 l 144 1014 l 231 1014 l 231 175 l 306 76 l 556 76 l 630 175 l 630 1014 l 717 1014 l 717 138 l 606 0 l 255 0 m 431 -199 l 526 -289 l 431 -379 l 335 -289 "},"Ù":{"ha":861,"x_min":0,"x_max":0,"o":"m 144 138 l 144 1014 l 231 1014 l 231 175 l 306 76 l 556 76 l 630 175 l 630 1014 l 717 1014 l 717 138 l 606 0 l 255 0 m 321 1308 l 475 1146 l 399 1146 l 224 1308 "},"Ű":{"ha":861,"x_min":0,"x_max":0,"o":"m 144 138 l 144 1014 l 231 1014 l 231 175 l 306 76 l 556 76 l 630 175 l 630 1014 l 717 1014 l 717 138 l 606 0 l 255 0 m 367 1308 l 456 1308 l 335 1146 l 265 1146 m 617 1308 l 708 1308 l 585 1146 l 516 1146 "},"Ū":{"ha":861,"x_min":0,"x_max":0,"o":"m 144 138 l 144 1014 l 231 1014 l 231 175 l 306 76 l 556 76 l 630 175 l 630 1014 l 717 1014 l 717 138 l 606 0 l 255 0 m 217 1272 l 644 1272 l 644 1202 l 217 1202 "},"Ų":{"ha":861,"x_min":0,"x_max":0,"o":"m 144 138 l 144 1014 l 231 1014 l 231 175 l 306 76 l 556 76 l 630 175 l 630 1014 l 717 1014 l 717 138 l 606 0 l 510 0 l 408 -105 l 408 -182 l 454 -215 l 510 -215 l 510 -278 l 433 -278 l 337 -215 l 337 -85 l 426 0 l 255 0 "},"Ů":{"ha":861,"x_min":0,"x_max":0,"o":"m 144 138 l 144 1014 l 231 1014 l 231 175 l 306 76 l 556 76 l 630 175 l 630 1014 l 717 1014 l 717 138 l 606 0 l 255 0 m 273 1203 l 370 1313 l 491 1313 l 588 1204 l 588 1111 l 491 1002 l 370 1002 l 273 1110 m 403 1063 l 458 1063 l 523 1137 l 523 1178 l 458 1251 l 403 1251 l 338 1178 l 338 1137 "},"Ũ":{"ha":861,"x_min":0,"x_max":0,"o":"m 144 138 l 144 1014 l 231 1014 l 231 175 l 306 76 l 556 76 l 630 175 l 630 1014 l 717 1014 l 717 138 l 606 0 l 255 0 m 190 1226 l 273 1315 l 391 1315 l 499 1202 l 562 1202 l 609 1251 l 609 1315 l 672 1315 l 672 1230 l 588 1141 l 470 1141 l 363 1253 l 299 1253 l 252 1204 l 252 1141 l 190 1141 "},"V":{"ha":861,"x_min":0,"x_max":0,"o":"m 137 513 l 137 1014 l 224 1014 l 224 535 l 431 85 l 637 533 l 637 1014 l 724 1014 l 724 513 l 481 0 l 380 0 "},"W":{"ha":861,"x_min":0,"x_max":0,"o":"m 60 513 l 60 1014 l 148 1014 l 148 535 l 260 120 l 387 533 l 387 703 l 474 703 l 474 535 l 601 120 l 713 533 l 713 1014 l 801 1014 l 801 513 l 648 0 l 565 0 l 431 433 l 296 0 l 213 0 "},"Ẃ":{"ha":861,"x_min":0,"x_max":0,"o":"m 60 513 l 60 1014 l 148 1014 l 148 535 l 260 120 l 387 533 l 387 703 l 474 703 l 474 535 l 601 120 l 713 533 l 713 1014 l 801 1014 l 801 513 l 648 0 l 565 0 l 431 433 l 296 0 l 213 0 m 462 1146 l 638 1308 l 540 1308 l 386 1146 "},"Ŵ":{"ha":861,"x_min":0,"x_max":0,"o":"m 60 513 l 60 1014 l 148 1014 l 148 535 l 260 120 l 387 533 l 387 703 l 474 703 l 474 535 l 601 120 l 713 533 l 713 1014 l 801 1014 l 801 513 l 648 0 l 565 0 l 431 433 l 296 0 l 213 0 m 390 1308 l 471 1308 l 654 1146 l 563 1146 l 431 1269 l 298 1146 l 207 1146 "},"Ẅ":{"ha":861,"x_min":0,"x_max":0,"o":"m 60 513 l 60 1014 l 148 1014 l 148 535 l 260 120 l 387 533 l 387 703 l 474 703 l 474 535 l 601 120 l 713 533 l 713 1014 l 801 1014 l 801 513 l 648 0 l 565 0 l 431 433 l 296 0 l 213 0 m 260 1310 l 353 1219 l 260 1129 l 166 1219 m 602 1310 l 695 1219 l 602 1129 l 508 1219 "},"Ẁ":{"ha":861,"x_min":0,"x_max":0,"o":"m 60 513 l 60 1014 l 148 1014 l 148 535 l 260 120 l 387 533 l 387 703 l 474 703 l 474 535 l 601 120 l 713 533 l 713 1014 l 801 1014 l 801 513 l 648 0 l 565 0 l 431 433 l 296 0 l 213 0 m 321 1308 l 475 1146 l 399 1146 l 224 1308 "},"X":{"ha":861,"x_min":0,"x_max":0,"o":"m 644 151 l 417 458 l 213 153 l 213 0 l 130 0 l 130 171 l 368 522 l 130 843 l 130 1014 l 217 1014 l 217 865 l 445 557 l 648 858 l 648 1014 l 731 1014 l 731 843 l 493 492 l 731 171 l 731 0 l 644 0 "},"Y":{"ha":861,"x_min":0,"x_max":0,"o":"m 130 767 l 130 1014 l 217 1014 l 217 789 l 431 491 l 644 786 l 644 1014 l 731 1014 l 731 767 l 474 409 l 474 0 l 387 0 l 387 409 "},"Ý":{"ha":861,"x_min":0,"x_max":0,"o":"m 130 767 l 130 1014 l 217 1014 l 217 789 l 431 491 l 644 786 l 644 1014 l 731 1014 l 731 767 l 474 409 l 474 0 l 387 0 l 387 409 m 462 1146 l 638 1308 l 540 1308 l 386 1146 "},"Ŷ":{"ha":861,"x_min":0,"x_max":0,"o":"m 130 767 l 130 1014 l 217 1014 l 217 789 l 431 491 l 644 786 l 644 1014 l 731 1014 l 731 767 l 474 409 l 474 0 l 387 0 l 387 409 m 390 1308 l 471 1308 l 654 1146 l 563 1146 l 431 1269 l 298 1146 l 207 1146 "},"Ÿ":{"ha":861,"x_min":0,"x_max":0,"o":"m 130 767 l 130 1014 l 217 1014 l 217 789 l 431 491 l 644 786 l 644 1014 l 731 1014 l 731 767 l 474 409 l 474 0 l 387 0 l 387 409 m 260 1310 l 353 1219 l 260 1129 l 166 1219 m 602 1310 l 695 1219 l 602 1129 l 508 1219 "},"Ỳ":{"ha":861,"x_min":0,"x_max":0,"o":"m 130 767 l 130 1014 l 217 1014 l 217 789 l 431 491 l 644 786 l 644 1014 l 731 1014 l 731 767 l 474 409 l 474 0 l 387 0 l 387 409 m 321 1308 l 475 1146 l 399 1146 l 224 1308 "},"Ȳ":{"ha":861,"x_min":0,"x_max":0,"o":"m 130 767 l 130 1014 l 217 1014 l 217 789 l 431 491 l 644 786 l 644 1014 l 731 1014 l 731 767 l 474 409 l 474 0 l 387 0 l 387 409 m 217 1272 l 644 1272 l 644 1202 l 217 1202 "},"Ỹ":{"ha":861,"x_min":0,"x_max":0,"o":"m 130 767 l 130 1014 l 217 1014 l 217 789 l 431 491 l 644 786 l 644 1014 l 731 1014 l 731 767 l 474 409 l 474 0 l 387 0 l 387 409 m 190 1226 l 273 1315 l 391 1315 l 499 1202 l 562 1202 l 609 1251 l 609 1315 l 672 1315 l 672 1230 l 588 1141 l 470 1141 l 363 1253 l 299 1253 l 252 1204 l 252 1141 l 190 1141 "},"Z":{"ha":861,"x_min":0,"x_max":0,"o":"m 115 63 l 633 940 l 116 940 l 116 1013 l 708 1014 l 736 954 l 222 74 l 769 74 l 769 0 l 143 0 "},"Ź":{"ha":861,"x_min":0,"x_max":0,"o":"m 115 63 l 633 940 l 116 940 l 116 1013 l 708 1014 l 736 954 l 222 74 l 769 74 l 769 0 l 143 0 m 462 1146 l 638 1308 l 540 1308 l 386 1146 "},"Ž":{"ha":861,"x_min":0,"x_max":0,"o":"m 115 63 l 633 940 l 116 940 l 116 1013 l 708 1014 l 736 954 l 222 74 l 769 74 l 769 0 l 143 0 m 390 1146 l 471 1146 l 654 1308 l 563 1308 l 431 1184 l 298 1308 l 207 1308 "},"Ż":{"ha":861,"x_min":0,"x_max":0,"o":"m 115 63 l 633 940 l 116 940 l 116 1013 l 708 1014 l 736 954 l 222 74 l 769 74 l 769 0 l 143 0 m 431 1310 l 526 1219 l 431 1129 l 335 1219 "},"a":{"ha":861,"x_min":0,"x_max":0,"o":"m 654 98 l 288 -16 l 95 144 l 95 294 l 268 407 l 649 407 l 649 536 l 566 626 l 188 626 l 201 694 l 598 694 l 729 557 l 729 0 l 676 0 m 315 58 l 649 154 l 649 338 l 295 338 l 172 259 l 172 169 "},"á":{"ha":861,"x_min":0,"x_max":0,"o":"m 654 98 l 288 -16 l 95 144 l 95 294 l 268 407 l 649 407 l 649 536 l 566 626 l 188 626 l 201 694 l 598 694 l 729 557 l 729 0 l 676 0 m 315 58 l 649 154 l 649 338 l 295 338 l 172 259 l 172 169 m 462 885 l 638 1109 l 540 1109 l 386 885 "},"ă":{"ha":861,"x_min":0,"x_max":0,"o":"m 654 98 l 288 -16 l 95 144 l 95 294 l 268 407 l 649 407 l 649 536 l 566 626 l 188 626 l 201 694 l 598 694 l 729 557 l 729 0 l 676 0 m 315 58 l 649 154 l 649 338 l 295 338 l 172 259 l 172 169 m 245 1109 l 308 1109 l 308 1008 l 370 941 l 491 941 l 553 1008 l 553 1109 l 616 1109 l 616 982 l 533 880 l 328 880 l 245 981 "},"â":{"ha":861,"x_min":0,"x_max":0,"o":"m 654 98 l 288 -16 l 95 144 l 95 294 l 268 407 l 649 407 l 649 536 l 566 626 l 188 626 l 201 694 l 598 694 l 729 557 l 729 0 l 676 0 m 315 58 l 649 154 l 649 338 l 295 338 l 172 259 l 172 169 m 397 1109 l 464 1109 l 654 885 l 570 885 l 431 1060 l 291 885 l 207 885 "},"ä":{"ha":861,"x_min":0,"x_max":0,"o":"m 654 98 l 288 -16 l 95 144 l 95 294 l 268 407 l 649 407 l 649 536 l 566 626 l 188 626 l 201 694 l 598 694 l 729 557 l 729 0 l 676 0 m 260 1067 l 353 976 l 260 886 l 166 976 m 315 58 l 649 154 l 649 338 l 295 338 l 172 259 l 172 169 m 602 1067 l 695 976 l 602 886 l 508 976 "},"à":{"ha":861,"x_min":0,"x_max":0,"o":"m 654 98 l 288 -16 l 95 144 l 95 294 l 268 407 l 649 407 l 649 536 l 566 626 l 188 626 l 201 694 l 598 694 l 729 557 l 729 0 l 676 0 m 315 58 l 649 154 l 649 338 l 295 338 l 172 259 l 172 169 m 321 1109 l 475 885 l 399 885 l 224 1109 "},"ā":{"ha":861,"x_min":0,"x_max":0,"o":"m 654 98 l 288 -16 l 95 144 l 95 294 l 268 407 l 649 407 l 649 536 l 566 626 l 188 626 l 201 694 l 598 694 l 729 557 l 729 0 l 676 0 m 315 58 l 649 154 l 649 338 l 295 338 l 172 259 l 172 169 m 217 999 l 644 999 l 644 930 l 217 930 "},"ą":{"ha":861,"x_min":0,"x_max":0,"o":"m 95 144 l 95 294 l 268 407 l 649 407 l 649 536 l 566 626 l 188 626 l 201 694 l 598 694 l 729 557 l 729 0 l 626 -105 l 626 -182 l 673 -215 l 729 -215 l 729 -278 l 651 -278 l 556 -215 l 556 -85 l 671 24 l 654 98 l 288 -16 m 315 58 l 649 154 l 649 338 l 295 338 l 172 259 l 172 169 "},"å":{"ha":861,"x_min":0,"x_max":0,"o":"m 654 98 l 288 -16 l 95 144 l 95 294 l 268 407 l 649 407 l 649 536 l 566 626 l 188 626 l 201 694 l 598 694 l 729 557 l 729 0 l 676 0 m 315 58 l 649 154 l 649 338 l 295 338 l 172 259 l 172 169 m 273 1045 l 370 1154 l 491 1154 l 588 1046 l 588 953 l 491 844 l 370 844 l 273 952 m 403 905 l 458 905 l 523 978 l 523 1019 l 458 1093 l 403 1093 l 338 1019 l 338 978 "},"ã":{"ha":861,"x_min":0,"x_max":0,"o":"m 654 98 l 288 -16 l 95 144 l 95 294 l 268 407 l 649 407 l 649 536 l 566 626 l 188 626 l 201 694 l 598 694 l 729 557 l 729 0 l 676 0 m 315 58 l 649 154 l 649 338 l 295 338 l 172 259 l 172 169 m 192 985 l 276 1095 l 399 1095 l 507 941 l 558 941 l 612 1011 l 612 1095 l 674 1095 l 674 990 l 591 880 l 467 880 l 360 1034 l 309 1034 l 255 964 l 255 880 l 192 880 "},"æ":{"ha":861,"x_min":0,"x_max":0,"o":"m 422 601 l 500 694 l 705 694 l 824 594 l 824 431 l 709 345 l 459 345 l 459 161 l 578 68 l 784 68 l 770 0 l 546 0 l 435 89 l 410 89 l 216 -8 l 37 144 l 37 294 l 147 407 l 385 407 l 385 526 l 299 626 l 94 626 l 108 694 l 345 694 m 226 74 l 385 133 l 385 338 l 178 338 l 106 263 l 106 169 m 675 413 l 755 468 l 755 564 l 675 626 l 545 626 l 459 526 l 459 413 "},"ǽ":{"ha":861,"x_min":0,"x_max":0,"o":"m 422 601 l 500 694 l 705 694 l 824 594 l 824 431 l 709 345 l 459 345 l 459 161 l 578 68 l 784 68 l 770 0 l 546 0 l 435 89 l 410 89 l 216 -8 l 37 144 l 37 294 l 147 407 l 385 407 l 385 526 l 299 626 l 94 626 l 108 694 l 345 694 m 226 74 l 385 133 l 385 338 l 178 338 l 106 263 l 106 169 m 465 885 l 640 1109 l 543 1109 l 389 885 m 675 413 l 755 468 l 755 564 l 675 626 l 545 626 l 459 526 l 459 413 "},"b":{"ha":861,"x_min":0,"x_max":0,"o":"m 140 1049 l 226 1063 l 226 610 l 538 710 l 740 536 l 740 214 l 530 0 l 140 0 m 489 65 l 654 237 l 654 508 l 511 626 l 219 546 l 219 65 "},"c":{"ha":861,"x_min":0,"x_max":0,"o":"m 111 229 l 111 465 l 340 694 l 715 694 l 729 626 l 372 626 l 192 444 l 192 250 l 372 68 l 729 68 l 715 0 l 340 0 "},"ć":{"ha":861,"x_min":0,"x_max":0,"o":"m 111 229 l 111 465 l 340 694 l 715 694 l 729 626 l 372 626 l 192 444 l 192 250 l 372 68 l 729 68 l 715 0 l 340 0 m 490 885 l 665 1109 l 568 1109 l 414 885 "},"č":{"ha":861,"x_min":0,"x_max":0,"o":"m 111 229 l 111 465 l 340 694 l 715 694 l 729 626 l 372 626 l 192 444 l 192 250 l 372 68 l 729 68 l 715 0 l 340 0 m 425 885 l 492 885 l 682 1109 l 598 1109 l 458 933 l 319 1109 l 235 1109 "},"ç":{"ha":861,"x_min":0,"x_max":0,"o":"m 111 229 l 111 465 l 340 694 l 715 694 l 729 626 l 372 626 l 192 444 l 192 250 l 372 68 l 729 68 l 715 0 l 506 0 l 506 -117 l 540 -117 l 635 -194 l 635 -316 l 540 -392 l 413 -392 l 413 -330 l 514 -330 l 574 -281 l 574 -228 l 514 -180 l 440 -180 l 440 0 l 340 0 "},"ĉ":{"ha":861,"x_min":0,"x_max":0,"o":"m 111 229 l 111 465 l 340 694 l 715 694 l 729 626 l 372 626 l 192 444 l 192 250 l 372 68 l 729 68 l 715 0 l 340 0 m 425 1109 l 492 1109 l 682 885 l 598 885 l 458 1060 l 319 885 l 235 885 "},"ċ":{"ha":861,"x_min":0,"x_max":0,"o":"m 111 229 l 111 465 l 340 694 l 715 694 l 729 626 l 372 626 l 192 444 l 192 250 l 372 68 l 729 68 l 715 0 l 340 0 m 458 1067 l 553 976 l 458 886 l 363 976 "},"d":{"ha":861,"x_min":0,"x_max":0,"o":"m 644 87 l 324 -16 l 122 158 l 122 481 l 331 694 l 635 694 l 635 1049 l 722 1063 l 722 0 l 659 0 m 350 69 l 642 149 l 642 629 l 372 629 l 207 458 l 207 187 "},"ð":{"ha":861,"x_min":0,"x_max":0,"o":"m 169 859 l 358 943 l 258 1063 l 352 1063 l 427 974 l 626 1063 l 653 1000 l 473 919 l 772 567 l 772 214 l 566 0 l 323 0 l 117 186 l 117 443 l 381 610 l 637 610 l 403 889 l 197 797 m 367 68 l 522 68 l 693 244 l 693 542 l 415 542 l 197 405 l 197 225 "},"ď":{"ha":861,"x_min":0,"x_max":0,"o":"m 609 86 l 303 -16 l 101 158 l 101 481 l 310 694 l 601 694 l 601 1049 l 687 1063 l 687 0 l 624 0 m 329 69 l 608 148 l 608 629 l 351 629 l 186 458 l 186 187 m 813 1124 l 897 1124 l 869 890 l 801 890 "},"đ":{"ha":861,"x_min":0,"x_max":0,"o":"m 314 924 l 635 924 l 635 1049 l 722 1063 l 722 924 l 814 924 l 814 855 l 722 855 l 722 0 l 659 0 l 644 87 l 324 -16 l 122 158 l 122 453 l 331 667 l 635 667 l 635 855 l 314 855 m 350 69 l 642 149 l 642 601 l 372 601 l 207 430 l 207 187 "},"e":{"ha":861,"x_min":0,"x_max":0,"o":"m 118 229 l 118 465 l 313 694 l 628 694 l 734 594 l 734 431 l 640 345 l 199 345 l 199 253 l 379 68 l 701 68 l 687 0 l 347 0 m 594 413 l 660 468 l 660 571 l 594 626 l 344 626 l 199 441 l 199 413 "},"é":{"ha":861,"x_min":0,"x_max":0,"o":"m 118 229 l 118 465 l 313 694 l 628 694 l 734 594 l 734 431 l 640 345 l 199 345 l 199 253 l 379 68 l 701 68 l 687 0 l 347 0 m 594 413 l 660 468 l 660 571 l 594 626 l 344 626 l 199 441 l 199 413 m 490 885 l 665 1109 l 568 1109 l 414 885 "},"ĕ":{"ha":861,"x_min":0,"x_max":0,"o":"m 118 229 l 118 465 l 313 694 l 628 694 l 734 594 l 734 431 l 640 345 l 199 345 l 199 253 l 379 68 l 701 68 l 687 0 l 347 0 m 594 413 l 660 468 l 660 571 l 594 626 l 344 626 l 199 441 l 199 413 m 273 1109 l 335 1109 l 335 1008 l 398 941 l 519 941 l 581 1008 l 581 1109 l 644 1109 l 644 982 l 560 880 l 356 880 l 273 981 "},"ě":{"ha":861,"x_min":0,"x_max":0,"o":"m 118 229 l 118 465 l 313 694 l 628 694 l 734 594 l 734 431 l 640 345 l 199 345 l 199 253 l 379 68 l 701 68 l 687 0 l 347 0 m 594 413 l 660 468 l 660 571 l 594 626 l 344 626 l 199 441 l 199 413 m 425 885 l 492 885 l 682 1109 l 598 1109 l 458 933 l 319 1109 l 235 1109 "},"ê":{"ha":861,"x_min":0,"x_max":0,"o":"m 118 229 l 118 465 l 313 694 l 628 694 l 734 594 l 734 431 l 640 345 l 199 345 l 199 253 l 379 68 l 701 68 l 687 0 l 347 0 m 594 413 l 660 468 l 660 571 l 594 626 l 344 626 l 199 441 l 199 413 m 425 1109 l 492 1109 l 682 885 l 598 885 l 458 1060 l 319 885 l 235 885 "},"ë":{"ha":861,"x_min":0,"x_max":0,"o":"m 118 229 l 118 465 l 313 694 l 628 694 l 734 594 l 734 431 l 640 345 l 199 345 l 199 253 l 379 68 l 701 68 l 687 0 l 347 0 m 288 1067 l 381 976 l 288 886 l 194 976 m 594 413 l 660 468 l 660 571 l 594 626 l 344 626 l 199 441 l 199 413 m 630 1067 l 723 976 l 630 886 l 536 976 "},"ė":{"ha":861,"x_min":0,"x_max":0,"o":"m 118 229 l 118 465 l 313 694 l 628 694 l 734 594 l 734 431 l 640 345 l 199 345 l 199 253 l 379 68 l 701 68 l 687 0 l 347 0 m 594 413 l 660 468 l 660 571 l 594 626 l 344 626 l 199 441 l 199 413 m 458 1067 l 553 976 l 458 886 l 363 976 "},"ẹ":{"ha":861,"x_min":0,"x_max":0,"o":"m 118 229 l 118 465 l 313 694 l 628 694 l 734 594 l 734 431 l 640 345 l 199 345 l 199 253 l 379 68 l 701 68 l 687 0 l 347 0 m 594 413 l 660 468 l 660 571 l 594 626 l 344 626 l 199 441 l 199 413 m 458 -199 l 553 -289 l 458 -379 l 363 -289 "},"è":{"ha":861,"x_min":0,"x_max":0,"o":"m 118 229 l 118 465 l 313 694 l 628 694 l 734 594 l 734 431 l 640 345 l 199 345 l 199 253 l 379 68 l 701 68 l 687 0 l 347 0 m 594 413 l 660 468 l 660 571 l 594 626 l 344 626 l 199 441 l 199 413 m 349 1109 l 503 885 l 427 885 l 251 1109 "},"ē":{"ha":861,"x_min":0,"x_max":0,"o":"m 118 229 l 118 465 l 313 694 l 628 694 l 734 594 l 734 431 l 640 345 l 199 345 l 199 253 l 379 68 l 701 68 l 687 0 l 347 0 m 594 413 l 660 468 l 660 571 l 594 626 l 344 626 l 199 441 l 199 413 m 245 999 l 672 999 l 672 930 l 245 930 "},"ę":{"ha":861,"x_min":0,"x_max":0,"o":"m 118 229 l 118 465 l 313 694 l 628 694 l 734 594 l 734 431 l 640 345 l 199 345 l 199 253 l 379 68 l 701 68 l 687 0 l 591 0 l 488 -105 l 488 -182 l 535 -215 l 591 -215 l 591 -278 l 513 -278 l 417 -215 l 417 -85 l 507 0 l 347 0 m 594 413 l 660 468 l 660 571 l 594 626 l 344 626 l 199 441 l 199 413 "},"ẽ":{"ha":861,"x_min":0,"x_max":0,"o":"m 118 229 l 118 465 l 313 694 l 628 694 l 734 594 l 734 431 l 640 345 l 199 345 l 199 253 l 379 68 l 701 68 l 687 0 l 347 0 m 594 413 l 660 468 l 660 571 l 594 626 l 344 626 l 199 441 l 199 413 m 220 985 l 303 1095 l 427 1095 l 535 941 l 585 941 l 640 1011 l 640 1095 l 702 1095 l 702 990 l 619 880 l 495 880 l 388 1034 l 337 1034 l 283 964 l 283 880 l 220 880 "},"ə":{"ha":861,"x_min":0,"x_max":0,"o":"m 743 465 l 743 229 l 549 0 l 233 0 l 127 101 l 127 263 l 222 349 l 663 349 l 663 441 l 482 626 l 160 626 l 174 694 l 514 694 m 267 68 l 517 68 l 663 253 l 663 282 l 267 282 l 201 226 l 201 124 "},"f":{"ha":861,"x_min":0,"x_max":0,"o":"m 319 568 l 68 568 l 68 638 l 319 638 l 319 863 l 485 1063 l 785 1063 l 799 994 l 524 994 l 400 842 l 400 638 l 772 638 l 772 568 l 400 568 l 400 0 l 319 0 "},"g":{"ha":861,"x_min":0,"x_max":0,"o":"m 201 -210 l 503 -210 l 628 -57 l 628 163 l 316 67 l 128 242 l 128 481 l 338 694 l 708 694 l 708 -78 l 542 -278 l 215 -278 m 342 141 l 628 222 l 628 625 l 378 625 l 208 453 l 208 266 "},"ğ":{"ha":861,"x_min":0,"x_max":0,"o":"m 201 -210 l 503 -210 l 628 -57 l 628 163 l 316 67 l 128 242 l 128 481 l 338 694 l 708 694 l 708 -78 l 542 -278 l 215 -278 m 342 141 l 628 222 l 628 625 l 378 625 l 208 453 l 208 266 m 259 1109 l 322 1109 l 322 1008 l 384 941 l 505 941 l 567 1008 l 567 1109 l 630 1109 l 630 982 l 547 880 l 342 880 l 259 981 "},"ǧ":{"ha":861,"x_min":0,"x_max":0,"o":"m 201 -210 l 503 -210 l 628 -57 l 628 163 l 316 67 l 128 242 l 128 481 l 338 694 l 708 694 l 708 -78 l 542 -278 l 215 -278 m 342 141 l 628 222 l 628 625 l 378 625 l 208 453 l 208 266 m 411 885 l 478 885 l 668 1109 l 584 1109 l 444 933 l 305 1109 l 221 1109 "},"ĝ":{"ha":861,"x_min":0,"x_max":0,"o":"m 201 -210 l 503 -210 l 628 -57 l 628 163 l 316 67 l 128 242 l 128 481 l 338 694 l 708 694 l 708 -78 l 542 -278 l 215 -278 m 342 141 l 628 222 l 628 625 l 378 625 l 208 453 l 208 266 m 411 1109 l 478 1109 l 668 885 l 584 885 l 444 1060 l 305 885 l 221 885 "},"ģ":{"ha":861,"x_min":0,"x_max":0,"o":"m 201 -210 l 503 -210 l 628 -57 l 628 163 l 316 67 l 128 242 l 128 481 l 338 694 l 708 694 l 708 -78 l 542 -278 l 215 -278 m 342 141 l 628 222 l 628 625 l 378 625 l 208 453 l 208 266 m 360 1060 l 477 1213 l 529 1185 l 433 1060 l 509 1060 l 509 911 l 360 911 "},"ġ":{"ha":861,"x_min":0,"x_max":0,"o":"m 201 -210 l 503 -210 l 628 -57 l 628 163 l 316 67 l 128 242 l 128 481 l 338 694 l 708 694 l 708 -78 l 542 -278 l 215 -278 m 342 141 l 628 222 l 628 625 l 378 625 l 208 453 l 208 266 m 444 1067 l 540 976 l 444 886 l 349 976 "},"h":{"ha":861,"x_min":0,"x_max":0,"o":"m 620 512 l 513 630 l 240 558 l 240 0 l 153 0 l 153 1049 l 240 1063 l 240 618 l 539 710 l 705 536 l 708 0 l 620 0 "},"ħ":{"ha":861,"x_min":0,"x_max":0,"o":"m 47 924 l 153 924 l 153 1049 l 240 1063 l 240 924 l 547 924 l 547 855 l 240 855 l 240 590 l 539 683 l 708 508 l 708 0 l 620 0 l 620 484 l 513 602 l 240 531 l 240 0 l 153 0 l 153 855 l 47 855 "},"ĥ":{"ha":861,"x_min":0,"x_max":0,"o":"m 620 512 l 513 630 l 240 558 l 240 0 l 153 0 l 153 1049 l 240 1063 l 240 618 l 539 710 l 705 536 l 708 0 l 620 0 m 156 1356 l 236 1356 l 419 1194 l 328 1194 l 196 1318 l 63 1194 l -28 1194 "},"i":{"ha":861,"x_min":0,"x_max":0,"o":"m 435 626 l 135 626 l 149 694 l 479 694 l 522 649 l 522 0 l 435 0 m 447 1067 l 542 976 l 447 886 l 351 976 "},"ı":{"ha":861,"x_min":0,"x_max":0,"o":"m 435 626 l 135 626 l 149 694 l 479 694 l 522 649 l 522 0 l 435 0 "},"í":{"ha":861,"x_min":0,"x_max":0,"o":"m 435 626 l 135 626 l 149 694 l 479 694 l 522 649 l 522 0 l 435 0 m 420 885 l 596 1109 l 499 1109 l 344 885 "},"ĭ":{"ha":861,"x_min":0,"x_max":0,"o":"m 435 626 l 135 626 l 149 694 l 479 694 l 522 649 l 522 0 l 435 0 m 203 1109 l 266 1109 l 266 1008 l 328 941 l 449 941 l 512 1008 l 512 1109 l 574 1109 l 574 982 l 491 880 l 287 880 l 203 981 "},"î":{"ha":861,"x_min":0,"x_max":0,"o":"m 435 626 l 135 626 l 149 694 l 479 694 l 522 649 l 522 0 l 435 0 m 356 1109 l 422 1109 l 613 885 l 528 885 l 389 1060 l 249 885 l 165 885 "},"ï":{"ha":861,"x_min":0,"x_max":0,"o":"m 435 626 l 135 626 l 149 694 l 479 694 l 522 649 l 522 0 l 435 0 m 218 1067 l 311 976 l 218 886 l 124 976 m 560 1067 l 653 976 l 560 886 l 467 976 "},"ị":{"ha":861,"x_min":0,"x_max":0,"o":"m 435 626 l 135 626 l 149 694 l 479 694 l 522 649 l 522 0 l 435 0 m 447 1067 l 542 976 l 447 886 l 351 976 m 478 -199 l 574 -289 l 478 -379 l 383 -289 "},"ì":{"ha":861,"x_min":0,"x_max":0,"o":"m 435 626 l 135 626 l 149 694 l 479 694 l 522 649 l 522 0 l 435 0 m 279 1109 l 433 885 l 358 885 l 182 1109 "},"ĳ":{"ha":861,"x_min":0,"x_max":0,"o":"m 240 626 l 79 626 l 93 694 l 284 694 l 326 649 l 326 0 l 240 0 m 215 1067 l 310 976 l 215 886 l 119 976 m 517 -210 l 642 -57 l 642 626 l 446 626 l 460 694 l 685 694 l 728 649 l 728 -78 l 562 -278 l 299 -278 l 285 -210 m 616 1067 l 711 976 l 616 886 l 521 976 "},"ī":{"ha":861,"x_min":0,"x_max":0,"o":"m 435 626 l 135 626 l 149 694 l 479 694 l 522 649 l 522 0 l 435 0 m 176 999 l 602 999 l 602 930 l 176 930 "},"į":{"ha":861,"x_min":0,"x_max":0,"o":"m 435 626 l 135 626 l 149 694 l 479 694 l 522 649 l 522 0 l 419 -105 l 419 -182 l 465 -215 l 522 -215 l 522 -278 l 444 -278 l 348 -215 l 348 -85 l 438 0 l 435 0 m 389 1067 l 484 976 l 389 886 l 294 976 "},"j":{"ha":861,"x_min":0,"x_max":0,"o":"m 140 -210 l 372 -210 l 497 -57 l 497 626 l 162 626 l 176 694 l 540 694 l 583 649 l 583 -78 l 417 -278 l 153 -278 m 508 1067 l 603 976 l 508 886 l 413 976 "},"ȷ":{"ha":861,"x_min":0,"x_max":0,"o":"m 140 -210 l 372 -210 l 497 -57 l 497 626 l 162 626 l 176 694 l 540 694 l 583 649 l 583 -78 l 417 -278 l 153 -278 "},"ĵ":{"ha":861,"x_min":0,"x_max":0,"o":"m 140 -210 l 372 -210 l 497 -57 l 497 626 l 162 626 l 176 694 l 540 694 l 583 649 l 583 -78 l 417 -278 l 153 -278 m 381 1109 l 448 1109 l 638 885 l 554 885 l 415 1060 l 275 885 l 191 885 "},"k":{"ha":861,"x_min":0,"x_max":0,"o":"m 652 124 l 414 342 l 240 342 l 240 0 l 153 0 l 153 1049 l 240 1063 l 240 415 l 410 415 l 677 694 l 777 694 l 483 385 l 738 143 l 738 0 l 652 0 "},"ķ":{"ha":861,"x_min":0,"x_max":0,"o":"m 652 124 l 414 342 l 240 342 l 240 0 l 153 0 l 153 1049 l 240 1063 l 240 415 l 410 415 l 677 694 l 777 694 l 483 385 l 738 143 l 738 0 l 652 0 m 442 -366 l 366 -366 l 366 -217 l 515 -217 l 515 -366 l 398 -519 l 346 -491 "},"ĸ":{"ha":861,"x_min":0,"x_max":0,"o":"m 652 124 l 414 342 l 240 342 l 240 0 l 153 0 l 153 694 l 240 694 l 240 415 l 410 415 l 677 694 l 777 694 l 483 385 l 738 143 l 738 0 l 652 0 "},"l":{"ha":861,"x_min":0,"x_max":0,"o":"m 330 200 l 330 994 l 73 994 l 87 1063 l 368 1063 l 410 1017 l 410 221 l 535 68 l 760 68 l 747 0 l 496 0 "},"ĺ":{"ha":861,"x_min":0,"x_max":0,"o":"m 330 200 l 330 994 l 73 994 l 87 1063 l 368 1063 l 410 1017 l 410 221 l 535 68 l 760 68 l 747 0 l 496 0 m 462 1194 l 638 1356 l 540 1356 l 386 1194 "},"ľ":{"ha":861,"x_min":0,"x_max":0,"o":"m 330 200 l 330 994 l 73 994 l 87 1063 l 368 1063 l 410 1017 l 410 221 l 535 68 l 760 68 l 747 0 l 496 0 m 632 1124 l 716 1124 l 688 890 l 620 890 "},"ļ":{"ha":861,"x_min":0,"x_max":0,"o":"m 330 200 l 330 994 l 73 994 l 87 1063 l 368 1063 l 410 1017 l 410 221 l 535 68 l 760 68 l 747 0 l 496 0 m 442 -366 l 366 -366 l 366 -217 l 515 -217 l 515 -366 l 398 -519 l 346 -491 "},"ŀ":{"ha":861,"x_min":0,"x_max":0,"o":"m 330 200 l 330 994 l 73 994 l 87 1063 l 368 1063 l 410 1017 l 410 221 l 535 68 l 760 68 l 747 0 l 496 0 m 780 655 l 875 565 l 780 474 l 685 565 "},"ł":{"ha":861,"x_min":0,"x_max":0,"o":"m 181 501 l 330 574 l 330 994 l 73 994 l 87 1063 l 368 1063 l 410 1017 l 410 613 l 680 744 l 680 665 l 410 533 l 410 221 l 535 68 l 760 68 l 747 0 l 496 0 l 330 200 l 330 494 l 181 422 "},"m":{"ha":861,"x_min":0,"x_max":0,"o":"m 650 567 l 591 630 l 474 573 l 474 0 l 387 0 l 387 567 l 328 630 l 210 572 l 210 0 l 124 0 l 124 694 l 184 694 l 205 629 l 354 710 l 447 618 l 617 710 l 738 592 l 738 0 l 650 0 "},"n":{"ha":861,"x_min":0,"x_max":0,"o":"m 620 512 l 513 630 l 240 558 l 240 0 l 153 0 l 153 694 l 214 694 l 238 618 l 539 710 l 708 536 l 708 0 l 620 0 "},"ń":{"ha":861,"x_min":0,"x_max":0,"o":"m 620 512 l 513 630 l 240 558 l 240 0 l 153 0 l 153 694 l 214 694 l 238 618 l 539 710 l 708 536 l 708 0 l 620 0 m 462 885 l 638 1109 l 540 1109 l 386 885 "},"ň":{"ha":861,"x_min":0,"x_max":0,"o":"m 620 512 l 513 630 l 240 558 l 240 0 l 153 0 l 153 694 l 214 694 l 238 618 l 539 710 l 708 536 l 708 0 l 620 0 m 397 885 l 464 885 l 654 1109 l 570 1109 l 431 933 l 291 1109 l 207 1109 "},"ņ":{"ha":861,"x_min":0,"x_max":0,"o":"m 620 512 l 513 630 l 240 558 l 240 0 l 153 0 l 153 694 l 214 694 l 238 618 l 539 710 l 708 536 l 708 0 l 620 0 m 442 -366 l 366 -366 l 366 -217 l 515 -217 l 515 -366 l 398 -519 l 346 -491 "},"ɲ":{"ha":861,"x_min":0,"x_max":0,"o":"m 131 -278 l 6 -278 l -8 -210 l 86 -210 l 153 -112 l 153 694 l 214 694 l 238 618 l 539 710 l 708 536 l 708 0 l 620 0 l 620 512 l 513 630 l 240 558 l 240 -133 "},"ñ":{"ha":861,"x_min":0,"x_max":0,"o":"m 620 512 l 513 630 l 240 558 l 240 0 l 153 0 l 153 694 l 214 694 l 238 618 l 539 710 l 708 536 l 708 0 l 620 0 m 192 985 l 276 1095 l 399 1095 l 507 941 l 558 941 l 612 1011 l 612 1095 l 674 1095 l 674 990 l 591 880 l 467 880 l 360 1034 l 309 1034 l 255 964 l 255 880 l 192 880 "},"ŋ":{"ha":861,"x_min":0,"x_max":0,"o":"m 599 -278 l 474 -278 l 460 -210 l 554 -210 l 620 -112 l 620 512 l 513 630 l 240 558 l 240 0 l 153 0 l 153 694 l 214 694 l 238 618 l 539 710 l 708 536 l 708 -133 "},"o":{"ha":861,"x_min":0,"x_max":0,"o":"m 111 229 l 111 465 l 340 694 l 534 694 l 750 465 l 750 229 l 520 0 l 340 0 m 372 68 l 488 68 l 669 250 l 669 444 l 488 626 l 372 626 l 192 444 l 192 250 "},"ó":{"ha":861,"x_min":0,"x_max":0,"o":"m 111 229 l 111 465 l 340 694 l 534 694 l 750 465 l 750 229 l 520 0 l 340 0 m 372 68 l 488 68 l 669 250 l 669 444 l 488 626 l 372 626 l 192 444 l 192 250 m 462 885 l 638 1109 l 540 1109 l 386 885 "},"ŏ":{"ha":861,"x_min":0,"x_max":0,"o":"m 111 229 l 111 465 l 340 694 l 534 694 l 750 465 l 750 229 l 520 0 l 340 0 m 372 68 l 488 68 l 669 250 l 669 444 l 488 626 l 372 626 l 192 444 l 192 250 m 245 1109 l 308 1109 l 308 1008 l 370 941 l 491 941 l 553 1008 l 553 1109 l 616 1109 l 616 982 l 533 880 l 328 880 l 245 981 "},"ô":{"ha":861,"x_min":0,"x_max":0,"o":"m 111 229 l 111 465 l 340 694 l 534 694 l 750 465 l 750 229 l 520 0 l 340 0 m 372 68 l 488 68 l 669 250 l 669 444 l 488 626 l 372 626 l 192 444 l 192 250 m 397 1109 l 464 1109 l 654 885 l 570 885 l 431 1060 l 291 885 l 207 885 "},"ö":{"ha":861,"x_min":0,"x_max":0,"o":"m 111 229 l 111 465 l 340 694 l 534 694 l 750 465 l 750 229 l 520 0 l 340 0 m 260 1067 l 353 976 l 260 886 l 166 976 m 372 68 l 488 68 l 669 250 l 669 444 l 488 626 l 372 626 l 192 444 l 192 250 m 602 1067 l 695 976 l 602 886 l 508 976 "},"ọ":{"ha":861,"x_min":0,"x_max":0,"o":"m 111 229 l 111 465 l 340 694 l 534 694 l 750 465 l 750 229 l 520 0 l 340 0 m 372 68 l 488 68 l 669 250 l 669 444 l 488 626 l 372 626 l 192 444 l 192 250 m 431 -199 l 526 -289 l 431 -379 l 335 -289 "},"ò":{"ha":861,"x_min":0,"x_max":0,"o":"m 111 229 l 111 465 l 340 694 l 534 694 l 750 465 l 750 229 l 520 0 l 340 0 m 372 68 l 488 68 l 669 250 l 669 444 l 488 626 l 372 626 l 192 444 l 192 250 m 321 1109 l 475 885 l 399 885 l 224 1109 "},"ő":{"ha":861,"x_min":0,"x_max":0,"o":"m 111 229 l 111 465 l 340 694 l 534 694 l 750 465 l 750 229 l 520 0 l 340 0 m 372 68 l 488 68 l 669 250 l 669 444 l 488 626 l 372 626 l 192 444 l 192 250 m 367 1109 l 456 1109 l 335 885 l 265 885 m 617 1109 l 708 1109 l 585 885 l 516 885 "},"ō":{"ha":861,"x_min":0,"x_max":0,"o":"m 111 229 l 111 465 l 340 694 l 534 694 l 750 465 l 750 229 l 520 0 l 340 0 m 372 68 l 488 68 l 669 250 l 669 444 l 488 626 l 372 626 l 192 444 l 192 250 m 217 999 l 644 999 l 644 930 l 217 930 "},"ǫ":{"ha":861,"x_min":0,"x_max":0,"o":"m 111 229 l 111 465 l 340 694 l 534 694 l 750 465 l 750 229 l 520 0 l 417 -105 l 417 -182 l 464 -215 l 520 -215 l 520 -278 l 442 -278 l 347 -215 l 347 -85 l 436 0 l 340 0 m 372 68 l 488 68 l 669 250 l 669 444 l 488 626 l 372 626 l 192 444 l 192 250 "},"ø":{"ha":861,"x_min":0,"x_max":0,"o":"m 76 -84 l 220 120 l 111 229 l 111 465 l 340 694 l 534 694 l 584 641 l 715 828 l 785 778 l 644 577 l 750 465 l 750 229 l 520 0 l 340 0 l 282 58 l 147 -134 m 264 177 l 540 574 l 488 626 l 372 626 l 192 444 l 192 250 m 372 68 l 488 68 l 669 250 l 669 444 l 597 517 l 322 119 "},"ǿ":{"ha":861,"x_min":0,"x_max":0,"o":"m 76 -84 l 220 120 l 111 229 l 111 465 l 340 694 l 534 694 l 584 641 l 715 828 l 785 778 l 644 577 l 750 465 l 750 229 l 520 0 l 340 0 l 282 58 l 147 -134 m 264 177 l 540 574 l 488 626 l 372 626 l 192 444 l 192 250 m 372 68 l 488 68 l 669 250 l 669 444 l 597 517 l 322 119 m 462 885 l 638 1109 l 540 1109 l 386 885 "},"õ":{"ha":861,"x_min":0,"x_max":0,"o":"m 111 229 l 111 465 l 340 694 l 534 694 l 750 465 l 750 229 l 520 0 l 340 0 m 372 68 l 488 68 l 669 250 l 669 444 l 488 626 l 372 626 l 192 444 l 192 250 m 192 985 l 276 1095 l 399 1095 l 507 941 l 558 941 l 612 1011 l 612 1095 l 674 1095 l 674 990 l 591 880 l 467 880 l 360 1034 l 309 1034 l 255 964 l 255 880 l 192 880 "},"œ":{"ha":861,"x_min":0,"x_max":0,"o":"m 705 694 l 824 594 l 824 431 l 709 345 l 473 345 l 473 161 l 592 68 l 784 68 l 770 0 l 560 0 l 408 122 l 335 0 l 176 0 l 38 229 l 38 465 l 176 694 l 335 694 l 410 570 l 514 694 m 208 68 l 303 68 l 399 238 l 399 457 l 303 626 l 208 626 l 107 457 l 107 238 m 675 413 l 755 468 l 755 564 l 675 626 l 559 626 l 473 526 l 473 413 "},"p":{"ha":861,"x_min":0,"x_max":0,"o":"m 140 694 l 202 694 l 216 608 l 538 710 l 740 536 l 740 214 l 530 0 l 226 0 l 226 -278 l 140 -278 m 489 65 l 654 237 l 654 508 l 511 626 l 219 546 l 219 65 "},"þ":{"ha":861,"x_min":0,"x_max":0,"o":"m 153 1063 l 239 1063 l 239 617 l 531 710 l 733 536 l 733 214 l 524 0 l 239 0 l 239 -278 l 153 -278 m 483 65 l 648 237 l 648 508 l 505 626 l 239 553 l 239 65 "},"q":{"ha":861,"x_min":0,"x_max":0,"o":"m 635 84 l 324 -16 l 122 158 l 122 481 l 331 694 l 722 694 l 722 -278 l 635 -278 m 350 69 l 642 149 l 642 629 l 372 629 l 207 458 l 207 187 "},"r":{"ha":861,"x_min":0,"x_max":0,"o":"m 620 512 l 513 637 l 240 560 l 240 0 l 153 0 l 153 694 l 214 694 l 233 617 l 539 710 l 705 536 l 708 434 l 620 420 "},"ŕ":{"ha":861,"x_min":0,"x_max":0,"o":"m 620 512 l 513 637 l 240 560 l 240 0 l 153 0 l 153 694 l 214 694 l 233 617 l 539 710 l 705 536 l 708 434 l 620 420 m 462 885 l 638 1109 l 540 1109 l 386 885 "},"ř":{"ha":861,"x_min":0,"x_max":0,"o":"m 620 512 l 513 637 l 240 560 l 240 0 l 153 0 l 153 694 l 214 694 l 233 617 l 539 710 l 705 536 l 708 434 l 620 420 m 397 885 l 464 885 l 654 1109 l 570 1109 l 431 933 l 291 1109 l 207 1109 "},"ŗ":{"ha":861,"x_min":0,"x_max":0,"o":"m 620 512 l 513 637 l 240 560 l 240 0 l 153 0 l 153 694 l 214 694 l 233 617 l 539 710 l 705 536 l 708 434 l 620 420 m 199 -366 l 122 -366 l 122 -217 l 272 -217 l 272 -366 l 154 -519 l 102 -491 "},"s":{"ha":861,"x_min":0,"x_max":0,"o":"m 160 68 l 533 68 l 624 176 l 624 203 l 167 447 l 167 549 l 292 694 l 674 694 l 688 626 l 335 626 l 244 519 l 244 491 l 701 247 l 701 145 l 576 0 l 174 0 "},"ś":{"ha":861,"x_min":0,"x_max":0,"o":"m 160 68 l 533 68 l 624 176 l 624 203 l 167 447 l 167 549 l 292 694 l 674 694 l 688 626 l 335 626 l 244 519 l 244 491 l 701 247 l 701 145 l 576 0 l 174 0 m 462 885 l 638 1109 l 540 1109 l 386 885 "},"š":{"ha":861,"x_min":0,"x_max":0,"o":"m 160 68 l 533 68 l 624 176 l 624 203 l 167 447 l 167 549 l 292 694 l 674 694 l 688 626 l 335 626 l 244 519 l 244 491 l 701 247 l 701 145 l 576 0 l 174 0 m 397 885 l 464 885 l 654 1109 l 570 1109 l 431 933 l 291 1109 l 207 1109 "},"ş":{"ha":861,"x_min":0,"x_max":0,"o":"m 160 68 l 533 68 l 624 176 l 624 203 l 167 447 l 167 549 l 292 694 l 674 694 l 688 626 l 335 626 l 244 519 l 244 491 l 701 247 l 701 145 l 576 0 l 450 0 l 450 -117 l 484 -117 l 579 -194 l 579 -316 l 485 -392 l 357 -392 l 357 -330 l 458 -330 l 518 -281 l 518 -228 l 458 -180 l 385 -180 l 385 0 l 174 0 "},"ŝ":{"ha":861,"x_min":0,"x_max":0,"o":"m 160 68 l 533 68 l 624 176 l 624 203 l 167 447 l 167 549 l 292 694 l 674 694 l 688 626 l 335 626 l 244 519 l 244 491 l 701 247 l 701 145 l 576 0 l 174 0 m 397 1109 l 464 1109 l 654 885 l 570 885 l 431 1060 l 291 885 l 207 885 "},"ș":{"ha":861,"x_min":0,"x_max":0,"o":"m 160 68 l 533 68 l 624 176 l 624 203 l 167 447 l 167 549 l 292 694 l 674 694 l 688 626 l 335 626 l 244 519 l 244 491 l 701 247 l 701 145 l 576 0 l 174 0 m 442 -366 l 366 -366 l 366 -217 l 515 -217 l 515 -366 l 398 -519 l 346 -491 "},"ß":{"ha":861,"x_min":0,"x_max":0,"o":"m 715 876 l 715 686 l 579 530 l 757 365 l 757 186 l 551 0 l 370 0 l 370 69 l 510 69 l 669 213 l 669 341 l 510 491 l 370 491 l 370 560 l 510 560 l 628 710 l 628 849 l 510 993 l 356 993 l 238 849 l 238 0 l 151 0 l 151 876 l 315 1063 l 551 1063 "},"t":{"ha":861,"x_min":0,"x_max":0,"o":"m 271 200 l 271 568 l 89 568 l 89 638 l 271 638 l 271 883 l 351 897 l 351 638 l 730 638 l 730 568 l 351 568 l 351 221 l 476 68 l 730 68 l 730 0 l 437 0 "},"ŧ":{"ha":861,"x_min":0,"x_max":0,"o":"m 68 513 l 271 513 l 271 708 l 68 708 l 68 777 l 271 777 l 271 883 l 351 897 l 351 777 l 730 777 l 730 708 l 351 708 l 351 513 l 730 513 l 730 444 l 351 444 l 351 221 l 476 68 l 730 68 l 730 0 l 437 0 l 271 200 l 271 444 l 68 444 "},"ť":{"ha":861,"x_min":0,"x_max":0,"o":"m 271 200 l 271 568 l 89 568 l 89 638 l 271 638 l 271 883 l 351 897 l 351 638 l 730 638 l 730 568 l 351 568 l 351 221 l 476 68 l 730 68 l 730 0 l 437 0 m 632 1075 l 716 1075 l 688 842 l 620 842 "},"ţ":{"ha":861,"x_min":0,"x_max":0,"o":"m 271 200 l 271 568 l 89 568 l 89 638 l 271 638 l 271 883 l 351 897 l 351 638 l 730 638 l 730 568 l 351 568 l 351 221 l 476 68 l 730 68 l 730 0 l 528 0 l 528 -117 l 563 -117 l 658 -194 l 658 -316 l 563 -392 l 435 -392 l 435 -330 l 537 -330 l 597 -281 l 597 -228 l 537 -180 l 463 -180 l 463 0 l 437 0 "},"ț":{"ha":861,"x_min":0,"x_max":0,"o":"m 271 200 l 271 568 l 89 568 l 89 638 l 271 638 l 271 883 l 351 897 l 351 638 l 730 638 l 730 568 l 351 568 l 351 221 l 476 68 l 730 68 l 730 0 l 437 0 m 521 -366 l 444 -366 l 444 -217 l 594 -217 l 594 -366 l 476 -519 l 424 -491 "},"u":{"ha":861,"x_min":0,"x_max":0,"o":"m 241 183 l 349 65 l 622 136 l 622 694 l 708 694 l 708 0 l 647 0 l 623 76 l 322 -16 l 153 158 l 153 694 l 241 694 "},"ú":{"ha":861,"x_min":0,"x_max":0,"o":"m 241 183 l 349 65 l 622 136 l 622 694 l 708 694 l 708 0 l 647 0 l 623 76 l 322 -16 l 153 158 l 153 694 l 241 694 m 462 885 l 638 1109 l 540 1109 l 386 885 "},"ŭ":{"ha":861,"x_min":0,"x_max":0,"o":"m 241 183 l 349 65 l 622 136 l 622 694 l 708 694 l 708 0 l 647 0 l 623 76 l 322 -16 l 153 158 l 153 694 l 241 694 m 245 1109 l 308 1109 l 308 1008 l 370 941 l 491 941 l 553 1008 l 553 1109 l 616 1109 l 616 982 l 533 880 l 328 880 l 245 981 "},"û":{"ha":861,"x_min":0,"x_max":0,"o":"m 241 183 l 349 65 l 622 136 l 622 694 l 708 694 l 708 0 l 647 0 l 623 76 l 322 -16 l 153 158 l 153 694 l 241 694 m 397 1109 l 464 1109 l 654 885 l 570 885 l 431 1060 l 291 885 l 207 885 "},"ü":{"ha":861,"x_min":0,"x_max":0,"o":"m 241 183 l 349 65 l 622 136 l 622 694 l 708 694 l 708 0 l 647 0 l 623 76 l 322 -16 l 153 158 l 153 694 l 241 694 m 260 1067 l 353 976 l 260 886 l 166 976 m 602 1067 l 695 976 l 602 886 l 508 976 "},"ụ":{"ha":861,"x_min":0,"x_max":0,"o":"m 241 183 l 349 65 l 622 136 l 622 694 l 708 694 l 708 0 l 647 0 l 623 76 l 322 -16 l 153 158 l 153 694 l 241 694 m 431 -199 l 526 -289 l 431 -379 l 335 -289 "},"ù":{"ha":861,"x_min":0,"x_max":0,"o":"m 241 183 l 349 65 l 622 136 l 622 694 l 708 694 l 708 0 l 647 0 l 623 76 l 322 -16 l 153 158 l 153 694 l 241 694 m 321 1109 l 475 885 l 399 885 l 224 1109 "},"ű":{"ha":861,"x_min":0,"x_max":0,"o":"m 241 183 l 349 65 l 622 136 l 622 694 l 708 694 l 708 0 l 647 0 l 623 76 l 322 -16 l 153 158 l 153 694 l 241 694 m 367 1109 l 456 1109 l 335 885 l 265 885 m 617 1109 l 708 1109 l 585 885 l 516 885 "},"ū":{"ha":861,"x_min":0,"x_max":0,"o":"m 241 183 l 349 65 l 622 136 l 622 694 l 708 694 l 708 0 l 647 0 l 623 76 l 322 -16 l 153 158 l 153 694 l 241 694 m 217 999 l 644 999 l 644 930 l 217 930 "},"ų":{"ha":861,"x_min":0,"x_max":0,"o":"m 241 183 l 349 65 l 622 136 l 622 694 l 708 694 l 708 0 l 708 0 l 606 -105 l 606 -182 l 652 -215 l 708 -215 l 708 -278 l 631 -278 l 535 -215 l 535 -85 l 642 17 l 623 76 l 322 -16 l 153 158 l 153 694 l 241 694 "},"ů":{"ha":861,"x_min":0,"x_max":0,"o":"m 241 183 l 349 65 l 622 136 l 622 694 l 708 694 l 708 0 l 647 0 l 623 76 l 322 -16 l 153 158 l 153 694 l 241 694 m 273 1045 l 370 1154 l 491 1154 l 588 1046 l 588 953 l 491 844 l 370 844 l 273 952 m 403 905 l 458 905 l 523 978 l 523 1019 l 458 1093 l 403 1093 l 338 1019 l 338 978 "},"ũ":{"ha":861,"x_min":0,"x_max":0,"o":"m 241 183 l 349 65 l 622 136 l 622 694 l 708 694 l 708 0 l 647 0 l 623 76 l 322 -16 l 153 158 l 153 694 l 241 694 m 192 985 l 276 1095 l 399 1095 l 507 941 l 558 941 l 612 1011 l 612 1095 l 674 1095 l 674 990 l 591 880 l 467 880 l 360 1034 l 309 1034 l 255 964 l 255 880 l 192 880 "},"v":{"ha":861,"x_min":0,"x_max":0,"o":"m 153 378 l 153 694 l 240 694 l 240 401 l 431 84 l 622 398 l 622 694 l 708 694 l 708 378 l 474 0 l 387 0 "},"w":{"ha":861,"x_min":0,"x_max":0,"o":"m 66 378 l 66 694 l 153 694 l 153 401 l 269 93 l 391 398 l 391 503 l 470 503 l 470 401 l 593 93 l 708 398 l 708 694 l 795 694 l 795 378 l 639 0 l 556 0 l 431 299 l 306 0 l 222 0 "},"ẃ":{"ha":861,"x_min":0,"x_max":0,"o":"m 66 378 l 66 694 l 153 694 l 153 401 l 269 93 l 391 398 l 391 503 l 470 503 l 470 401 l 593 93 l 708 398 l 708 694 l 795 694 l 795 378 l 639 0 l 556 0 l 431 299 l 306 0 l 222 0 m 462 885 l 638 1109 l 540 1109 l 386 885 "},"ŵ":{"ha":861,"x_min":0,"x_max":0,"o":"m 66 378 l 66 694 l 153 694 l 153 401 l 269 93 l 391 398 l 391 503 l 470 503 l 470 401 l 593 93 l 708 398 l 708 694 l 795 694 l 795 378 l 639 0 l 556 0 l 431 299 l 306 0 l 222 0 m 397 1109 l 464 1109 l 654 885 l 570 885 l 431 1060 l 291 885 l 207 885 "},"ẅ":{"ha":861,"x_min":0,"x_max":0,"o":"m 66 378 l 66 694 l 153 694 l 153 401 l 269 93 l 391 398 l 391 503 l 470 503 l 470 401 l 593 93 l 708 398 l 708 694 l 795 694 l 795 378 l 639 0 l 556 0 l 431 299 l 306 0 l 222 0 m 260 1067 l 353 976 l 260 886 l 166 976 m 602 1067 l 695 976 l 602 886 l 508 976 "},"ẁ":{"ha":861,"x_min":0,"x_max":0,"o":"m 66 378 l 66 694 l 153 694 l 153 401 l 269 93 l 391 398 l 391 503 l 470 503 l 470 401 l 593 93 l 708 398 l 708 694 l 795 694 l 795 378 l 639 0 l 556 0 l 431 299 l 306 0 l 222 0 m 321 1109 l 475 885 l 399 885 l 224 1109 "},"x":{"ha":861,"x_min":0,"x_max":0,"o":"m 621 127 l 421 306 l 240 130 l 240 0 l 153 0 l 153 149 l 365 356 l 153 545 l 153 694 l 240 694 l 240 567 l 440 389 l 621 565 l 621 694 l 708 694 l 708 545 l 497 338 l 708 149 l 708 0 l 621 0 "},"y":{"ha":861,"x_min":0,"x_max":0,"o":"m 174 -210 l 503 -210 l 628 -57 l 628 155 l 323 63 l 128 242 l 128 694 l 213 694 l 213 266 l 342 141 l 628 216 l 628 694 l 708 694 l 708 -78 l 542 -278 l 188 -278 "},"ý":{"ha":861,"x_min":0,"x_max":0,"o":"m 174 -210 l 503 -210 l 628 -57 l 628 155 l 323 63 l 128 242 l 128 694 l 213 694 l 213 266 l 342 141 l 628 216 l 628 694 l 708 694 l 708 -78 l 542 -278 l 188 -278 m 462 885 l 638 1109 l 540 1109 l 386 885 "},"ŷ":{"ha":861,"x_min":0,"x_max":0,"o":"m 174 -210 l 503 -210 l 628 -57 l 628 155 l 323 63 l 128 242 l 128 694 l 213 694 l 213 266 l 342 141 l 628 216 l 628 694 l 708 694 l 708 -78 l 542 -278 l 188 -278 m 397 1109 l 464 1109 l 654 885 l 570 885 l 431 1060 l 291 885 l 207 885 "},"ÿ":{"ha":861,"x_min":0,"x_max":0,"o":"m 174 -210 l 503 -210 l 628 -57 l 628 155 l 323 63 l 128 242 l 128 694 l 213 694 l 213 266 l 342 141 l 628 216 l 628 694 l 708 694 l 708 -78 l 542 -278 l 188 -278 m 260 1067 l 353 976 l 260 886 l 166 976 m 602 1067 l 695 976 l 602 886 l 508 976 "},"ỳ":{"ha":861,"x_min":0,"x_max":0,"o":"m 174 -210 l 503 -210 l 628 -57 l 628 155 l 323 63 l 128 242 l 128 694 l 213 694 l 213 266 l 342 141 l 628 216 l 628 694 l 708 694 l 708 -78 l 542 -278 l 188 -278 m 321 1109 l 475 885 l 399 885 l 224 1109 "},"ȳ":{"ha":861,"x_min":0,"x_max":0,"o":"m 174 -210 l 503 -210 l 628 -57 l 628 155 l 323 63 l 128 242 l 128 694 l 213 694 l 213 266 l 342 141 l 628 216 l 628 694 l 708 694 l 708 -78 l 542 -278 l 188 -278 m 217 999 l 644 999 l 644 930 l 217 930 "},"ỹ":{"ha":861,"x_min":0,"x_max":0,"o":"m 174 -210 l 503 -210 l 628 -57 l 628 155 l 323 63 l 128 242 l 128 694 l 213 694 l 213 266 l 342 141 l 628 216 l 628 694 l 708 694 l 708 -78 l 542 -278 l 188 -278 m 192 985 l 276 1095 l 399 1095 l 507 941 l 558 941 l 612 1011 l 612 1095 l 674 1095 l 674 990 l 591 880 l 467 880 l 360 1034 l 309 1034 l 255 964 l 255 880 l 192 880 "},"z":{"ha":861,"x_min":0,"x_max":0,"o":"m 127 59 l 585 622 l 128 622 l 128 694 l 672 694 l 692 638 l 235 72 l 725 72 l 725 0 l 148 0 "},"ź":{"ha":861,"x_min":0,"x_max":0,"o":"m 127 59 l 585 622 l 128 622 l 128 694 l 672 694 l 692 638 l 235 72 l 725 72 l 725 0 l 148 0 m 462 885 l 638 1109 l 540 1109 l 386 885 "},"ž":{"ha":861,"x_min":0,"x_max":0,"o":"m 127 59 l 585 622 l 128 622 l 128 694 l 672 694 l 692 638 l 235 72 l 725 72 l 725 0 l 148 0 m 397 885 l 464 885 l 654 1109 l 570 1109 l 431 933 l 291 1109 l 207 1109 "},"ż":{"ha":861,"x_min":0,"x_max":0,"o":"m 127 59 l 585 622 l 128 622 l 128 694 l 672 694 l 692 638 l 235 72 l 725 72 l 725 0 l 148 0 m 431 1067 l 526 976 l 431 886 l 335 976 "},"ª":{"ha":861,"x_min":0,"x_max":0,"o":"m 339 1079 b 504 944 442 1079 504 1045 l 504 730 b 555 697 504 698 516 691 l 555 641 b 502 633 535 635 517 633 b 432 696 451 633 434 660 l 424 696 b 276 633 390 665 347 633 b 147 748 197 633 147 675 b 427 881 147 867 283 882 l 427 940 b 331 1024 427 1010 388 1024 b 233 951 281 1024 233 1012 l 233 932 l 161 932 l 161 954 b 339 1079 161 1028 212 1079 m 226 757 b 310 690 226 714 258 690 b 427 735 356 690 392 709 l 427 836 b 387 838 413 838 399 838 b 226 757 288 838 226 817 "},"º":{"ha":861,"x_min":0,"x_max":0,"o":"m 557 855 b 349 633 557 706 463 633 b 141 855 235 633 141 706 b 349 1079 141 1004 235 1079 b 557 855 463 1079 557 1004 m 221 856 b 349 696 221 747 274 696 b 477 856 424 696 477 747 b 349 1016 477 965 424 1016 b 221 856 274 1016 221 965 "},"⁄":{"ha":861,"x_min":0,"x_max":0,"o":"m 731 753 l 179 202 l 129 249 l 681 801 "},"½":{"ha":861,"x_min":0,"x_max":0,"o":"m 81 947 b 181 1014 115 947 176 976 l 249 1014 l 249 684 l 363 684 l 363 628 l 69 628 l 69 684 l 181 684 l 181 924 b 81 880 152 898 114 880 l 81 947 m 706 801 l 756 753 l 204 202 l 154 249 m 506 56 b 635 193 506 118 555 156 b 726 285 684 216 726 237 b 653 338 726 324 696 338 b 570 275 606 338 576 324 l 506 281 b 644 392 506 353 564 392 b 795 285 735 392 795 360 b 667 141 795 199 720 167 b 571 56 602 109 574 92 l 809 56 l 809 0 l 506 0 "},"⅓":{"ha":861,"x_min":0,"x_max":0,"o":"m 81 947 b 181 1014 115 947 176 976 l 249 1014 l 249 684 l 363 684 l 363 628 l 69 628 l 69 684 l 181 684 l 181 924 b 81 880 152 898 114 880 l 81 947 m 706 801 l 756 753 l 204 202 l 154 249 m 563 114 b 654 48 572 62 602 48 b 739 107 709 48 739 67 b 622 166 739 149 685 166 l 611 166 l 611 215 l 621 215 b 731 284 688 215 731 242 b 652 338 731 324 701 338 b 572 276 606 338 578 325 l 508 282 b 650 392 510 353 560 392 b 797 289 742 392 797 357 b 728 196 797 240 766 210 b 809 104 774 185 809 160 b 654 -6 809 33 754 -6 b 499 108 552 -6 500 33 "},"⅔":{"ha":861,"x_min":0,"x_max":0,"o":"m 214 1020 b 365 913 305 1020 365 988 b 237 769 365 828 290 795 b 140 684 172 738 144 721 l 378 684 l 378 628 l 75 628 l 75 684 b 205 822 75 747 124 784 b 296 913 253 844 296 865 b 222 967 296 953 265 967 b 140 903 175 967 146 953 l 75 909 b 214 1020 76 982 133 1020 m 706 801 l 756 753 l 204 202 l 154 249 m 563 114 b 654 48 572 62 602 48 b 739 107 709 48 739 67 b 622 166 739 149 685 166 l 611 166 l 611 215 l 621 215 b 731 284 688 215 731 242 b 652 338 731 324 701 338 b 572 276 606 338 578 325 l 508 282 b 650 392 510 353 560 392 b 797 289 742 392 797 357 b 728 196 797 240 766 210 b 809 104 774 185 809 160 b 654 -6 809 33 754 -6 b 499 108 552 -6 500 33 "},"¼":{"ha":861,"x_min":0,"x_max":0,"o":"m 81 947 b 181 1014 115 947 176 976 l 249 1014 l 249 684 l 363 684 l 363 628 l 69 628 l 69 684 l 181 684 l 181 924 b 81 880 152 898 114 880 l 81 947 m 713 801 l 763 753 l 211 202 l 161 249 m 454 153 l 656 385 l 727 385 l 727 153 l 778 153 l 778 98 l 727 98 l 727 0 l 660 0 l 660 98 l 454 98 m 660 146 l 660 304 l 519 146 "},"¾":{"ha":861,"x_min":0,"x_max":0,"o":"m 217 1020 b 365 917 309 1020 365 985 b 295 824 365 868 333 839 b 376 733 341 813 376 788 b 222 622 376 662 322 622 b 66 736 119 622 67 661 l 131 742 b 222 676 139 690 169 676 b 306 735 276 676 306 695 b 189 794 306 777 253 794 l 178 794 l 178 844 l 188 844 b 298 913 255 844 298 870 b 219 967 298 953 268 967 b 139 904 174 967 145 953 l 76 910 b 217 1020 78 981 128 1020 m 713 801 l 763 753 l 211 202 l 161 249 m 454 153 l 656 385 l 727 385 l 727 153 l 778 153 l 778 98 l 727 98 l 727 0 l 660 0 l 660 98 l 454 98 m 660 146 l 660 304 l 519 146 "},"⅛":{"ha":861,"x_min":0,"x_max":0,"o":"m 81 947 b 181 1014 115 947 176 976 l 249 1014 l 249 684 l 363 684 l 363 628 l 69 628 l 69 684 l 181 684 l 181 924 b 81 880 152 898 114 880 l 81 947 m 706 801 l 756 753 l 204 202 l 154 249 m 488 101 b 573 195 488 145 519 176 b 502 289 527 219 502 249 b 649 392 502 363 563 392 b 796 290 731 392 796 361 b 723 201 796 244 763 218 b 809 105 776 178 809 149 b 649 -6 809 28 750 -6 b 488 101 542 -6 488 26 m 555 106 b 651 48 555 60 599 48 b 738 101 706 48 738 68 b 621 175 738 135 695 149 b 619 176 620 175 619 176 b 555 106 586 162 555 142 m 568 292 b 668 221 568 263 599 242 b 733 285 702 234 733 251 b 648 338 733 322 699 338 b 568 292 600 338 568 325 "},"⅜":{"ha":861,"x_min":0,"x_max":0,"o":"m 217 1020 b 365 917 309 1020 365 985 b 295 824 365 868 333 839 b 376 733 341 813 376 788 b 222 622 376 662 322 622 b 66 736 119 622 67 661 l 131 742 b 222 676 139 690 169 676 b 306 735 276 676 306 695 b 189 794 306 777 253 794 l 178 794 l 178 844 l 188 844 b 298 913 255 844 298 870 b 219 967 298 953 268 967 b 139 904 174 967 145 953 l 76 910 b 217 1020 78 981 128 1020 m 706 801 l 756 753 l 204 202 l 154 249 m 488 101 b 573 195 488 145 519 176 b 502 289 527 219 502 249 b 649 392 502 363 563 392 b 796 290 731 392 796 361 b 723 201 796 244 763 218 b 809 105 776 178 809 149 b 649 -6 809 28 750 -6 b 488 101 542 -6 488 26 m 555 106 b 651 48 555 60 599 48 b 738 101 706 48 738 68 b 621 175 738 135 695 149 b 619 176 620 175 619 176 b 555 106 586 162 555 142 m 568 292 b 668 221 568 263 599 242 b 733 285 702 234 733 251 b 648 338 733 322 699 338 b 568 292 600 338 568 325 "},"⅝":{"ha":861,"x_min":0,"x_max":0,"o":"m 360 1014 l 360 958 l 165 958 l 149 856 b 241 875 174 868 203 875 b 383 752 331 875 383 830 b 228 622 383 662 328 622 b 73 736 130 622 74 659 l 139 742 b 228 677 147 690 178 677 b 315 753 283 677 315 695 b 229 831 315 803 285 831 b 141 799 194 831 163 819 l 80 808 l 108 1014 m 706 801 l 756 753 l 204 202 l 154 249 m 488 101 b 573 195 488 145 519 176 b 502 289 527 219 502 249 b 649 392 502 363 563 392 b 796 290 731 392 796 361 b 723 201 796 244 763 218 b 809 105 776 178 809 149 b 649 -6 809 28 750 -6 b 488 101 542 -6 488 26 m 555 106 b 651 48 555 60 599 48 b 738 101 706 48 738 68 b 621 175 738 135 695 149 b 619 176 620 175 619 176 b 555 106 586 162 555 142 m 568 292 b 668 221 568 263 599 242 b 733 285 702 234 733 251 b 648 338 733 322 699 338 b 568 292 600 338 568 325 "},"⅞":{"ha":861,"x_min":0,"x_max":0,"o":"m 421 1014 l 421 972 l 269 628 l 199 628 l 346 958 l 125 958 l 125 1014 m 685 801 l 735 753 l 183 202 l 133 249 m 488 101 b 573 195 488 145 519 176 b 502 289 527 219 502 249 b 649 392 502 363 563 392 b 796 290 731 392 796 361 b 723 201 796 244 763 218 b 809 105 776 178 809 149 b 649 -6 809 28 750 -6 b 488 101 542 -6 488 26 m 555 106 b 651 48 555 60 599 48 b 738 101 706 48 738 68 b 621 175 738 135 695 149 b 619 176 620 175 619 176 b 555 106 586 162 555 142 m 568 292 b 668 221 568 263 599 242 b 733 285 702 234 733 251 b 648 338 733 322 699 338 b 568 292 600 338 568 325 "},"₀":{"ha":861,"x_min":0,"x_max":0,"o":"m 595 -1 b 431 -201 595 -136 533 -201 b 266 -1 328 -201 266 -136 b 431 197 266 138 328 197 b 595 -1 533 197 595 138 m 338 -1 b 431 -143 338 -107 369 -143 b 524 -1 492 -143 524 -107 b 431 140 524 103 492 140 b 338 -1 369 140 338 103 m 395 -3 b 431 -44 395 -28 408 -44 b 466 -3 453 -44 466 -28 b 431 38 466 23 453 38 b 395 -3 408 38 395 22 "},"₁":{"ha":861,"x_min":0,"x_max":0,"o":"m 306 124 b 407 191 340 124 401 153 l 475 191 l 475 -139 l 589 -139 l 589 -194 l 295 -194 l 295 -139 l 407 -139 l 407 101 b 306 57 378 75 340 57 l 306 124 "},"₂":{"ha":861,"x_min":0,"x_max":0,"o":"m 407 197 b 558 90 498 197 558 165 b 430 -53 558 5 483 -28 b 333 -139 365 -85 337 -102 l 572 -139 l 572 -194 l 268 -194 l 268 -139 b 398 -1 268 -76 317 -39 b 489 90 447 22 489 42 b 415 144 489 130 458 144 b 333 81 368 144 339 130 l 268 86 b 407 197 269 159 326 197 "},"₃":{"ha":861,"x_min":0,"x_max":0,"o":"m 415 197 b 563 94 507 197 563 163 b 493 1 563 45 531 16 b 574 -90 539 -10 574 -35 b 419 -201 574 -161 519 -201 b 264 -87 317 -201 265 -162 l 328 -81 b 419 -147 337 -133 367 -147 b 504 -87 474 -147 504 -128 b 387 -28 504 -46 451 -28 l 376 -28 l 376 21 l 386 21 b 496 90 453 21 496 47 b 417 144 496 130 466 144 b 337 81 372 144 343 131 l 274 88 b 415 197 276 158 326 197 "},"₄":{"ha":861,"x_min":0,"x_max":0,"o":"m 472 -194 l 472 -97 l 266 -97 l 266 -42 l 468 191 l 539 191 l 539 -42 l 590 -42 l 590 -97 l 539 -97 l 539 -194 m 472 -49 l 472 110 l 331 -49 "},"₅":{"ha":861,"x_min":0,"x_max":0,"o":"m 558 191 l 558 135 l 363 135 l 347 33 b 439 52 372 45 401 52 b 581 -71 528 52 581 7 b 426 -201 581 -161 526 -201 b 271 -87 328 -201 272 -164 l 337 -81 b 426 -146 345 -133 376 -146 b 513 -69 481 -146 513 -128 b 427 8 513 -20 483 8 b 339 -24 392 8 360 -4 l 278 -15 l 306 191 "},"₆":{"ha":861,"x_min":0,"x_max":0,"o":"m 439 197 b 581 92 519 197 580 165 l 517 87 b 436 144 510 128 485 144 b 343 -2 383 144 344 113 b 458 40 369 19 407 40 b 590 -74 539 40 590 7 b 431 -201 590 -163 533 -201 b 272 0 338 -201 272 -158 b 439 197 272 151 343 197 m 344 -41 b 433 -146 352 -122 385 -146 b 521 -74 485 -146 521 -124 b 443 -6 521 -29 490 -6 b 344 -41 404 -6 370 -22 "},"₇":{"ha":861,"x_min":0,"x_max":0,"o":"m 580 191 l 580 149 l 428 -194 l 358 -194 l 505 135 l 284 135 l 284 191 "},"₈":{"ha":861,"x_min":0,"x_max":0,"o":"m 431 197 b 577 96 513 197 577 167 b 504 7 577 50 544 24 b 590 -90 558 -16 590 -46 b 431 -201 590 -167 531 -201 b 269 -94 323 -201 269 -168 b 354 1 269 -49 301 -19 b 283 94 308 25 283 55 b 431 197 283 168 344 197 m 336 -89 b 433 -147 336 -135 380 -147 b 519 -94 487 -147 519 -126 b 402 -19 519 -60 476 -45 b 400 -19 401 -19 401 -19 b 336 -89 367 -33 336 -53 m 349 97 b 449 26 349 68 380 48 b 514 91 483 40 514 57 b 429 144 514 128 481 144 b 349 97 381 144 349 131 "},"₉":{"ha":861,"x_min":0,"x_max":0,"o":"m 422 -200 b 281 -96 344 -200 281 -168 l 344 -90 b 425 -147 351 -130 374 -147 b 518 -2 478 -147 517 -117 b 404 -44 492 -23 455 -44 b 272 71 323 -44 272 -10 b 431 197 272 160 328 197 b 590 -3 524 197 590 154 b 422 -200 590 -155 518 -200 m 341 71 b 419 2 341 26 371 2 b 517 37 458 2 492 19 b 429 143 510 118 476 143 b 341 71 377 143 341 121 "},"⁰":{"ha":861,"x_min":0,"x_max":0,"o":"m 595 957 b 431 758 595 822 533 758 b 266 957 328 758 266 822 b 431 1156 266 1096 328 1156 b 595 957 533 1156 595 1096 m 338 957 b 431 815 338 851 369 815 b 524 957 492 815 524 851 b 431 1098 524 1062 492 1098 b 338 957 369 1098 338 1062 m 395 955 b 431 915 395 930 408 915 b 466 955 453 915 466 930 b 431 996 466 981 453 996 b 395 955 408 996 395 981 "},"¹":{"ha":861,"x_min":0,"x_max":0,"o":"m 306 1083 b 407 1149 340 1083 401 1112 l 475 1149 l 475 819 l 589 819 l 589 764 l 295 764 l 295 819 l 407 819 l 407 1059 b 306 1015 378 1033 340 1015 l 306 1083 "},"²":{"ha":861,"x_min":0,"x_max":0,"o":"m 407 1156 b 558 1049 498 1156 558 1124 b 430 905 558 963 483 931 b 333 819 365 873 337 856 l 572 819 l 572 764 l 268 764 l 268 819 b 398 957 268 882 317 919 b 489 1049 447 980 489 1001 b 415 1102 489 1088 458 1102 b 333 1039 368 1102 339 1088 l 268 1044 b 407 1156 269 1117 326 1156 "},"³":{"ha":861,"x_min":0,"x_max":0,"o":"m 415 1156 b 563 1053 507 1156 563 1121 b 493 960 563 1003 531 974 b 574 868 539 949 574 924 b 419 758 574 797 519 758 b 264 872 317 758 265 797 l 328 878 b 419 812 337 826 367 812 b 504 871 474 812 504 831 b 387 930 504 913 451 930 l 376 930 l 376 979 l 386 979 b 496 1048 453 979 496 1006 b 417 1102 496 1088 466 1102 b 337 1040 372 1102 343 1089 l 274 1046 b 415 1156 276 1117 326 1156 "},"⁴":{"ha":861,"x_min":0,"x_max":0,"o":"m 472 764 l 472 862 l 266 862 l 266 917 l 468 1149 l 539 1149 l 539 917 l 590 917 l 590 862 l 539 862 l 539 764 m 472 910 l 472 1068 l 331 910 "},"⁵":{"ha":861,"x_min":0,"x_max":0,"o":"m 558 1149 l 558 1094 l 363 1094 l 347 992 b 439 1010 372 1003 401 1010 b 581 888 528 1010 581 965 b 426 758 581 797 526 758 b 271 872 328 758 272 794 l 337 878 b 426 813 345 825 376 813 b 513 889 481 813 513 831 b 427 967 513 938 483 967 b 339 934 392 967 360 954 l 278 943 l 306 1149 "},"⁶":{"ha":861,"x_min":0,"x_max":0,"o":"m 439 1156 b 581 1051 519 1156 580 1123 l 517 1045 b 436 1102 510 1087 485 1102 b 343 956 383 1102 344 1072 b 458 999 369 977 407 999 b 590 884 539 999 590 965 b 431 758 590 795 533 758 b 272 958 338 758 272 801 b 439 1156 272 1110 343 1156 m 344 917 b 433 813 352 837 385 813 b 521 884 485 813 521 835 b 443 953 521 929 490 953 b 344 917 404 953 370 937 "},"⁷":{"ha":861,"x_min":0,"x_max":0,"o":"m 580 1149 l 580 1108 l 428 764 l 358 764 l 505 1094 l 284 1094 l 284 1149 "},"⁸":{"ha":861,"x_min":0,"x_max":0,"o":"m 431 1156 b 577 1054 513 1156 577 1125 b 504 965 577 1008 544 982 b 590 869 558 942 590 913 b 431 758 590 792 531 758 b 269 865 323 758 269 790 b 354 959 269 909 301 940 b 283 1053 308 983 283 1013 b 431 1156 283 1126 344 1156 m 336 869 b 433 812 336 824 380 812 b 519 865 487 812 519 832 b 402 939 519 899 476 913 b 400 940 401 939 401 940 b 336 869 367 926 336 906 m 349 1056 b 449 985 349 1026 380 1006 b 514 1049 483 998 514 1015 b 429 1102 514 1086 481 1102 b 349 1056 381 1102 349 1089 "},"⁹":{"ha":861,"x_min":0,"x_max":0,"o":"m 422 758 b 281 863 344 758 281 790 l 344 868 b 425 811 351 828 374 811 b 518 956 478 811 517 842 b 404 915 492 935 455 915 b 272 1029 323 915 272 948 b 431 1156 272 1118 328 1156 b 590 955 524 1156 590 1113 b 422 758 590 803 518 758 m 341 1029 b 419 960 341 984 371 960 b 517 995 458 960 492 977 b 429 1101 510 1076 476 1101 b 341 1029 377 1101 341 1079 "},".":{"ha":861,"x_min":0,"x_max":0,"o":"m 431 -22 b 321 86 369 -22 321 19 b 431 194 321 155 369 194 b 541 86 492 194 541 155 b 431 -22 541 19 492 -22 "},",":{"ha":861,"x_min":0,"x_max":0,"o":"m 435 -22 b 321 87 366 -22 321 20 b 431 194 321 156 370 194 b 552 49 496 194 552 150 b 365 -290 552 -78 463 -203 l 316 -249 b 472 -17 397 -171 451 -97 b 435 -22 458 -21 446 -22 "},":":{"ha":861,"x_min":0,"x_max":0,"o":"m 431 -21 b 321 87 369 -21 321 19 b 431 194 321 156 369 194 b 541 87 492 194 541 156 b 431 -21 541 19 492 -21 m 321 631 b 431 738 321 699 369 738 b 541 631 492 738 541 699 b 431 523 541 563 492 523 b 321 631 369 523 321 563 "},";":{"ha":861,"x_min":0,"x_max":0,"o":"m 435 -22 b 321 87 366 -22 321 20 b 431 194 321 156 370 194 b 552 49 496 194 552 150 b 365 -290 552 -78 463 -203 l 316 -249 b 472 -17 397 -171 451 -97 b 435 -22 458 -21 446 -22 m 321 631 b 431 738 321 699 369 738 b 541 631 492 738 541 699 b 431 523 541 563 492 523 b 321 631 369 523 321 563 "},"…":{"ha":861,"x_min":0,"x_max":0,"o":"m 147 -17 b 59 69 98 -17 59 16 b 147 156 59 124 98 156 b 235 69 196 156 235 124 b 147 -17 235 16 196 -17 m 343 69 b 431 156 343 124 382 156 b 519 69 480 156 519 124 b 431 -17 519 16 480 -17 b 343 69 382 -17 343 16 m 627 69 b 715 156 627 124 666 156 b 803 69 764 156 803 124 b 715 -17 803 16 764 -17 b 627 69 666 -17 627 16 "},"!":{"ha":861,"x_min":0,"x_max":0,"o":"m 395 382 l 385 1014 l 476 1014 l 467 382 m 343 69 b 431 156 343 124 382 156 b 519 69 480 156 519 124 b 431 -17 519 16 480 -17 b 343 69 382 -17 343 16 "},"¡":{"ha":861,"x_min":0,"x_max":0,"o":"m 466 313 l 476 -319 l 385 -319 l 394 313 m 342 626 b 431 712 342 679 381 712 b 518 626 479 712 518 679 b 431 540 518 571 479 540 b 342 626 381 540 342 571 "},"?":{"ha":861,"x_min":0,"x_max":0,"o":"m 431 -17 b 343 69 382 -17 343 16 b 431 156 343 124 382 156 b 519 69 480 156 519 124 b 431 -17 519 16 480 -17 m 97 774 b 410 1031 111 969 259 1031 b 711 772 592 1031 711 942 b 469 505 711 600 589 534 l 467 368 l 395 368 l 392 542 b 620 772 517 571 620 628 b 410 952 620 898 540 952 b 188 767 281 952 202 898 l 97 774 "},"¿":{"ha":861,"x_min":0,"x_max":0,"o":"m 431 712 b 518 626 479 712 518 679 b 431 540 518 571 479 540 b 342 626 381 540 342 571 b 431 712 342 679 381 712 m 150 -76 b 392 190 150 95 272 161 l 394 327 l 466 327 l 469 153 b 241 -76 344 124 241 67 b 451 -257 241 -203 321 -257 b 673 -72 581 -257 659 -203 l 764 -78 b 451 -335 750 -274 602 -335 b 150 -76 269 -335 150 -247 "},"·":{"ha":861,"x_min":0,"x_max":0,"o":"m 431 340 b 321 448 369 340 321 381 b 431 556 321 517 369 556 b 541 448 492 556 541 517 b 431 340 541 381 492 340 "},"•":{"ha":861,"x_min":0,"x_max":0,"o":"m 430 290 b 269 448 340 290 269 349 b 430 606 269 549 340 606 b 592 448 521 606 592 549 b 430 290 592 349 521 290 "},"*":{"ha":861,"x_min":0,"x_max":0,"o":"m 103 609 l 397 499 l 381 810 l 481 810 l 464 499 l 758 609 l 789 514 l 484 435 l 682 188 l 602 128 l 431 394 l 258 128 l 178 188 l 376 435 l 72 514 "},"#":{"ha":861,"x_min":0,"x_max":0,"o":"m 153 -139 l 196 181 l 58 181 l 58 257 l 206 257 l 254 618 l 117 618 l 117 694 l 265 694 l 308 1014 l 390 1014 l 347 694 l 583 694 l 626 1014 l 708 1014 l 665 694 l 803 694 l 803 618 l 655 618 l 607 257 l 744 257 l 744 181 l 597 181 l 553 -139 l 472 -139 l 515 181 l 278 181 l 235 -139 m 525 257 l 573 618 l 336 618 l 288 257 "},"/":{"ha":861,"x_min":0,"x_max":0,"o":"m 111 -139 l 628 1014 l 722 1014 l 206 -139 "},"\\":{"ha":861,"x_min":0,"x_max":0,"o":"m 139 1014 l 233 1014 l 750 -139 l 656 -139 "},"‣":{"ha":861,"x_min":0,"x_max":0,"o":"m 643 448 l 272 235 l 272 660 "},"-":{"ha":861,"x_min":0,"x_max":0,"o":"m 181 487 l 681 487 l 681 410 l 181 410 "},"­":{"ha":861,"x_min":0,"x_max":0,"o":"m 181 487 l 681 487 l 681 410 l 181 410 "},"–":{"ha":861,"x_min":0,"x_max":0,"o":"m 118 487 l 743 487 l 743 410 l 118 410 "},"—":{"ha":861,"x_min":0,"x_max":0,"o":"m 63 487 l 799 487 l 799 410 l 63 410 "},"_":{"ha":861,"x_min":0,"x_max":0,"o":"m 63 -160 l 799 -160 l 799 -250 l 63 -250 "},"(":{"ha":861,"x_min":0,"x_max":0,"o":"m 363 417 b 697 -278 363 61 520 -124 l 610 -278 b 274 417 440 -140 274 56 b 610 1113 274 778 440 975 l 697 1113 b 363 417 520 958 363 774 "},")":{"ha":861,"x_min":0,"x_max":0,"o":"m 498 417 b 165 1113 498 774 341 958 l 251 1113 b 587 417 422 975 587 779 b 251 -278 587 57 422 -140 l 165 -278 b 498 417 341 -124 498 61 "},"{":{"ha":861,"x_min":0,"x_max":0,"o":"m 100 462 b 385 739 353 465 438 565 l 369 792 b 582 1113 308 999 388 1113 l 761 1113 l 761 1043 l 598 1043 b 455 803 478 1043 403 992 l 472 742 b 269 417 525 547 431 443 b 472 92 431 392 525 289 l 455 31 b 598 -208 403 -158 478 -208 l 761 -208 l 761 -278 l 582 -278 b 369 42 388 -278 308 -164 l 385 96 b 100 373 438 270 353 369 "},"}":{"ha":861,"x_min":0,"x_max":0,"o":"m 100 -208 l 263 -208 b 406 31 383 -208 458 -158 l 390 92 b 592 417 336 289 430 392 b 390 742 430 443 336 547 l 406 803 b 263 1043 458 992 383 1043 l 100 1043 l 100 1113 l 279 1113 b 492 792 473 1113 553 999 l 476 739 b 761 462 424 565 508 465 l 761 373 b 476 96 508 369 424 270 l 492 42 b 279 -278 553 -164 473 -278 l 100 -278 "},"[":{"ha":861,"x_min":0,"x_max":0,"o":"m 255 1113 l 690 1113 l 690 1043 l 342 1043 l 342 -208 l 690 -208 l 690 -278 l 255 -278 "},"]":{"ha":861,"x_min":0,"x_max":0,"o":"m 172 -278 l 172 -208 l 519 -208 l 519 1043 l 172 1043 l 172 1113 l 606 1113 l 606 -278 "},"‚":{"ha":861,"x_min":0,"x_max":0,"o":"m 435 -22 b 321 87 366 -22 321 20 b 431 194 321 156 370 194 b 552 49 496 194 552 150 b 365 -290 552 -78 463 -203 l 316 -249 b 472 -17 397 -171 451 -97 b 435 -22 458 -21 446 -22 "},"„":{"ha":861,"x_min":0,"x_max":0,"o":"m 258 -22 b 144 87 189 -22 144 20 b 253 194 144 156 193 194 b 375 49 319 194 375 150 b 188 -290 375 -78 285 -203 l 139 -249 b 294 -17 219 -171 274 -97 b 258 -22 281 -21 269 -22 m 486 -249 b 642 -17 567 -171 622 -97 b 605 -22 628 -21 616 -22 b 491 87 536 -22 491 20 b 601 194 491 156 540 194 b 722 49 666 194 722 150 b 535 -290 722 -78 633 -203 l 486 -249 "},"“":{"ha":861,"x_min":0,"x_max":0,"o":"m 256 769 b 370 660 325 769 370 727 b 260 553 370 591 321 553 b 139 698 195 553 139 597 b 326 1038 139 825 228 951 l 375 996 b 219 765 294 918 240 844 b 256 769 233 768 245 769 m 486 698 b 674 1038 486 825 576 951 l 722 996 b 567 765 642 918 587 844 b 603 769 581 768 592 769 b 717 660 672 769 717 727 b 608 553 717 591 668 553 b 486 698 542 553 486 597 "},"”":{"ha":861,"x_min":0,"x_max":0,"o":"m 258 815 b 144 924 189 815 144 857 b 253 1031 144 993 193 1031 b 375 886 319 1031 375 987 b 188 547 375 759 285 633 l 139 588 b 294 819 219 666 274 740 b 258 815 281 816 269 815 m 486 588 b 642 819 567 666 622 740 b 605 815 628 816 616 815 b 491 924 536 815 491 857 b 601 1031 491 993 540 1031 b 722 886 666 1031 722 987 b 535 547 722 759 633 633 l 486 588 "},"‘":{"ha":861,"x_min":0,"x_max":0,"o":"m 426 769 b 540 660 495 769 540 727 b 431 553 540 591 491 553 b 309 698 365 553 309 597 b 497 1038 309 825 399 951 l 545 996 b 390 765 465 918 410 844 b 426 769 403 768 415 769 "},"’":{"ha":861,"x_min":0,"x_max":0,"o":"m 435 815 b 321 924 366 815 321 857 b 431 1031 321 993 370 1031 b 552 886 496 1031 552 987 b 365 547 552 759 463 633 l 316 588 b 472 819 397 666 451 740 b 435 815 458 816 446 815 "},"«":{"ha":861,"x_min":0,"x_max":0,"o":"m 319 -15 l 69 349 l 319 713 l 382 669 l 160 350 l 382 28 m 673 710 l 736 666 l 514 347 l 736 26 l 673 -18 l 424 346 "},"»":{"ha":861,"x_min":0,"x_max":0,"o":"m 542 710 l 792 346 l 542 -18 l 479 26 l 701 344 l 479 666 m 347 347 l 125 669 l 188 713 l 438 349 l 188 -15 l 125 28 "},"‹":{"ha":861,"x_min":0,"x_max":0,"o":"m 506 -17 l 236 347 l 506 711 l 569 667 l 331 349 l 569 27 "},"›":{"ha":861,"x_min":0,"x_max":0,"o":"m 355 711 l 625 347 l 355 -17 l 292 27 l 531 346 l 292 667 "},"\"":{"ha":861,"x_min":0,"x_max":0,"o":"m 215 569 l 205 1014 l 292 1014 l 284 569 m 656 1014 l 648 569 l 578 569 l 569 1014 "},"'":{"ha":861,"x_min":0,"x_max":0,"o":"m 397 569 l 387 1014 l 474 1014 l 466 569 "},"ƒ":{"ha":861,"x_min":0,"x_max":0,"o":"m 656 1031 b 743 1010 691 1031 715 1025 l 729 945 b 664 959 706 955 689 959 b 530 780 592 959 551 926 l 501 582 l 717 582 l 717 513 l 491 513 l 406 -67 b 206 -294 378 -257 297 -294 b 118 -274 170 -294 146 -289 l 132 -209 b 197 -223 155 -219 172 -223 b 331 -44 269 -223 310 -190 l 413 513 l 197 513 l 197 582 l 423 582 l 456 803 b 656 1031 483 993 564 1031 "},"@":{"ha":861,"x_min":0,"x_max":0,"o":"m 326 409 b 518 711 326 642 411 711 b 672 627 596 711 633 674 l 681 627 b 455 912 679 842 595 912 b 161 517 266 912 161 785 l 161 177 b 492 -210 161 -128 306 -210 b 762 -152 596 -210 686 -185 l 763 -237 b 492 -294 678 -276 594 -294 b 74 181 248 -294 74 -189 l 74 510 b 455 996 74 835 212 996 b 768 597 644 996 768 897 l 768 138 b 826 63 768 60 780 47 l 826 -4 b 773 -17 811 -12 793 -17 b 688 67 716 -17 694 17 l 673 67 b 518 -17 631 19 594 -17 b 326 291 406 -17 326 61 l 326 409 m 417 319 b 544 63 417 124 456 63 b 681 153 597 63 639 85 l 681 542 b 546 632 642 610 600 632 b 417 381 460 632 417 578 l 417 319 "},"&":{"ha":861,"x_min":0,"x_max":0,"o":"m 638 568 l 812 568 l 812 492 l 720 492 b 662 201 715 387 697 285 l 826 0 l 716 0 l 617 119 b 354 -17 560 36 476 -17 b 76 253 172 -17 76 99 b 261 549 76 392 155 487 b 153 803 201 623 153 701 b 405 1030 153 943 245 1030 b 653 856 533 1030 607 974 l 572 827 b 405 951 538 900 494 951 b 244 803 308 951 244 891 b 408 510 244 695 339 594 l 604 271 b 638 504 628 343 638 426 m 172 268 b 365 65 172 152 239 65 b 565 183 458 65 522 113 l 338 456 b 303 499 326 470 315 484 b 172 268 220 445 172 367 "},"¶":{"ha":861,"x_min":0,"x_max":0,"o":"m 399 472 b 78 762 186 474 78 597 b 376 1014 78 949 219 1014 l 783 1014 l 783 938 l 706 938 l 706 0 l 619 0 l 619 938 l 487 938 l 487 0 l 399 0 "},"§":{"ha":861,"x_min":0,"x_max":0,"o":"m 156 10 b 406 -216 169 -149 252 -216 b 650 -26 560 -216 650 -148 b 388 201 650 103 551 133 b 115 469 226 270 115 331 b 188 642 115 540 145 598 b 142 785 158 679 142 725 b 461 1031 142 947 259 1031 b 765 774 613 1031 751 973 l 677 767 b 454 952 664 898 589 952 b 229 783 306 952 229 894 b 466 574 229 693 280 653 b 767 297 653 496 767 439 b 695 122 767 233 743 173 b 740 -18 724 85 740 40 b 406 -294 740 -159 649 -294 b 67 3 164 -294 74 -159 m 202 481 b 439 275 202 391 253 353 b 635 177 519 242 585 212 b 676 289 660 206 676 243 b 415 501 676 401 578 432 b 242 590 347 529 288 557 b 202 481 215 560 202 525 "},"©":{"ha":861,"x_min":0,"x_max":0,"o":"m 339 507 b 447 333 339 385 389 333 b 535 433 498 333 528 374 l 604 428 b 444 265 594 324 534 265 b 270 508 340 265 270 347 b 444 751 270 669 340 751 b 604 588 534 751 594 692 l 537 583 b 447 683 531 642 498 683 b 339 507 389 683 339 632 m 42 508 b 431 1031 42 838 203 1031 b 819 508 657 1031 819 838 b 431 -17 819 176 657 -17 b 42 508 203 -17 42 176 m 90 508 b 431 28 90 195 237 28 b 771 508 624 28 771 195 b 431 985 771 819 624 985 b 90 508 237 985 90 819 "},"®":{"ha":861,"x_min":0,"x_max":0,"o":"m 298 281 l 298 735 l 448 735 b 602 597 545 736 602 689 b 524 460 602 544 584 490 l 615 281 l 530 281 l 460 440 b 401 435 442 437 423 435 l 366 435 l 366 281 m 42 508 b 431 1031 42 838 203 1031 b 819 508 657 1031 819 838 b 431 -17 819 176 657 -17 b 42 508 203 -17 42 176 m 90 508 b 431 28 90 195 237 28 b 771 508 624 28 771 195 b 431 985 771 819 624 985 b 90 508 237 985 90 819 m 392 488 b 533 592 511 488 533 540 b 434 683 533 650 505 683 l 366 683 l 366 488 "},"™":{"ha":861,"x_min":0,"x_max":0,"o":"m 168 599 l 168 1002 l 60 1002 l 60 1063 l 342 1063 l 342 1002 l 234 1002 l 234 599 m 410 1063 l 480 1063 l 591 835 l 595 835 l 703 1063 l 771 1063 l 771 599 l 705 599 l 705 917 l 701 917 l 603 718 l 578 718 l 479 917 l 476 917 l 476 599 l 410 599 "},"°":{"ha":861,"x_min":0,"x_max":0,"o":"m 431 602 b 198 841 294 602 198 703 b 431 1079 198 978 294 1079 b 663 841 567 1079 663 978 b 431 602 663 703 567 602 m 275 841 b 431 676 275 746 335 676 b 585 841 526 676 585 746 b 431 1006 585 936 526 1006 b 275 841 335 1006 275 936 "},"|":{"ha":861,"x_min":0,"x_max":0,"o":"m 387 -278 l 387 1113 l 474 1113 l 474 -278 "},"¦":{"ha":861,"x_min":0,"x_max":0,"o":"m 387 513 l 387 1113 l 474 1113 l 474 513 m 387 322 l 474 322 l 474 -278 l 387 -278 "},"†":{"ha":861,"x_min":0,"x_max":0,"o":"m 387 -139 l 387 625 l 116 625 l 116 701 l 387 701 l 387 1014 l 474 1014 l 474 701 l 745 701 l 745 625 l 474 625 l 474 -139 "},"ℓ":{"ha":861,"x_min":0,"x_max":0,"o":"m 523 -16 b 271 213 400 -16 312 34 b 131 127 225 181 178 152 l 94 191 b 256 298 149 224 204 259 b 247 490 250 353 247 417 b 499 1030 247 895 338 1030 b 671 824 635 1030 671 936 b 351 272 671 599 526 411 b 538 64 376 108 435 64 b 706 100 589 64 640 75 l 725 26 b 523 -16 655 -1 590 -16 m 338 503 b 342 366 338 452 339 406 b 587 810 482 488 587 635 b 496 952 587 909 554 952 b 338 503 407 952 338 851 "},"‡":{"ha":861,"x_min":0,"x_max":0,"o":"m 387 -139 l 387 174 l 116 174 l 116 250 l 387 250 l 387 625 l 116 625 l 116 701 l 387 701 l 387 1014 l 474 1014 l 474 701 l 745 701 l 745 625 l 474 625 l 474 250 l 745 250 l 745 174 l 474 174 l 474 -139 "},"№":{"ha":861,"x_min":0,"x_max":0,"o":"m 155 808 l 142 808 l 142 0 l 69 0 l 69 1014 l 167 1014 l 375 222 l 388 222 l 388 1014 l 460 1014 l 460 0 l 365 0 m 556 744 b 692 1031 556 943 608 1031 b 830 744 777 1031 830 943 b 692 457 830 544 777 457 b 556 744 608 457 556 544 m 615 744 b 692 534 615 605 640 534 b 770 744 744 534 770 605 b 692 954 770 883 744 954 b 615 744 640 954 615 883 m 618 252 b 692 333 618 303 650 333 b 767 252 735 333 767 303 b 692 172 767 201 735 172 b 618 252 650 172 618 201 "},"₿":{"ha":861,"x_min":0,"x_max":0,"o":"m 524 10 b 403 0 488 3 448 0 l 342 0 l 342 -219 l 267 -219 l 267 0 l 132 0 l 132 1014 l 254 1014 l 254 1233 l 330 1233 l 330 1014 l 435 1014 b 512 1008 463 1014 488 1012 l 512 1233 l 588 1233 l 588 989 b 713 799 671 955 713 890 b 508 544 713 637 587 562 l 508 540 b 776 289 618 527 776 478 b 600 31 776 167 719 76 l 600 -219 l 524 -219 m 391 76 b 685 286 587 76 685 140 b 391 499 685 456 551 499 l 219 499 l 219 76 m 391 573 b 621 781 536 573 621 653 b 391 938 621 875 564 938 l 219 938 l 219 573 "},"¢":{"ha":861,"x_min":0,"x_max":0,"o":"m 762 318 b 442 122 724 191 597 122 l 439 122 l 418 -76 l 339 -76 l 360 129 b 92 450 201 157 92 268 b 429 776 92 656 233 769 l 449 973 l 528 973 l 508 772 b 763 581 635 756 730 690 l 677 561 b 495 695 651 639 586 683 l 445 200 b 677 337 557 201 647 246 l 762 318 m 186 449 b 372 207 186 310 258 229 l 422 697 b 186 449 279 689 186 608 "},"₡":{"ha":861,"x_min":0,"x_max":0,"o":"m 223 -219 l 263 49 b 74 506 144 125 74 271 b 405 1019 74 826 201 981 l 436 1233 l 502 1233 l 472 1028 b 519 1030 488 1029 503 1030 b 588 1026 543 1030 566 1028 l 619 1233 l 685 1233 l 653 1015 b 759 975 692 1006 728 993 l 723 907 b 641 935 698 919 671 928 l 513 66 l 519 66 b 723 108 601 66 667 82 l 759 40 b 519 -15 695 3 613 -15 l 501 -15 l 472 -219 l 406 -219 l 436 -10 b 324 18 396 -5 358 4 l 289 -219 m 171 506 b 277 149 171 328 210 216 l 392 932 b 171 506 255 892 171 770 m 336 105 b 448 70 369 87 407 76 l 576 946 b 519 949 558 948 539 949 b 460 946 499 949 478 948 l 336 105 "},"¤":{"ha":861,"x_min":0,"x_max":0,"o":"m 431 145 b 247 205 358 145 296 167 l 134 92 l 74 152 l 188 266 b 134 450 153 317 134 379 b 188 632 134 520 153 583 l 74 745 l 134 806 l 246 693 b 431 753 295 731 358 753 b 615 693 503 753 566 731 l 727 806 l 788 745 l 674 632 b 727 450 708 582 727 520 b 673 266 727 379 708 316 l 788 152 l 727 92 l 615 205 b 431 145 566 167 503 145 m 219 450 b 431 223 219 319 299 223 b 644 450 562 223 644 319 b 431 676 644 581 562 676 b 219 450 299 676 219 581 "},"$":{"ha":861,"x_min":0,"x_max":0,"o":"m 674 767 b 477 951 661 886 594 942 l 477 556 b 767 265 658 477 767 415 b 478 -14 767 131 686 6 l 478 -219 l 401 -219 l 401 -17 b 67 281 163 -10 74 123 l 159 288 b 402 62 172 135 253 67 l 402 486 b 401 487 401 486 401 487 b 116 782 231 560 116 626 b 401 1029 116 935 221 1017 l 401 1233 l 478 1233 l 478 1030 b 765 774 624 1023 751 960 l 674 767 m 207 787 b 402 589 207 699 250 658 l 402 951 b 207 787 274 942 207 888 m 477 65 b 673 260 602 80 673 146 b 477 454 673 360 601 400 l 477 65 "},"€":{"ha":861,"x_min":0,"x_max":0,"o":"m 544 362 l 251 362 b 542 66 280 140 383 66 b 719 108 615 66 664 82 l 761 40 b 542 -15 697 3 631 -15 b 154 362 328 -15 190 94 l 56 362 l 56 438 l 148 438 b 146 506 147 460 146 483 b 148 578 146 531 147 555 l 56 578 l 56 653 l 155 653 b 542 1030 190 921 328 1030 b 761 975 631 1030 697 1012 l 719 907 b 542 949 664 933 615 949 b 251 653 383 949 281 876 l 617 653 l 600 578 l 244 578 b 242 506 243 555 242 531 b 244 438 242 482 243 459 l 564 438 "},"₺":{"ha":861,"x_min":0,"x_max":0,"o":"m 259 755 l 533 854 l 533 780 l 259 681 l 259 567 l 533 666 l 533 592 l 259 492 l 259 76 l 260 76 b 685 479 536 76 672 192 l 772 479 b 263 0 758 133 565 0 l 172 0 l 172 460 l 35 411 l 35 485 l 172 535 l 172 649 l 35 599 l 35 674 l 172 723 l 172 1014 l 259 1014 "},"₱":{"ha":861,"x_min":0,"x_max":0,"o":"m 178 0 l 178 537 l 56 537 l 56 613 l 178 613 l 178 745 l 56 745 l 56 821 l 178 821 l 178 1014 l 413 1014 b 691 821 563 1014 659 964 l 806 821 l 806 745 l 701 745 b 703 699 702 731 703 715 b 697 613 703 668 701 640 l 806 613 l 806 537 l 681 537 b 376 344 640 409 542 344 l 266 344 l 266 0 m 366 420 b 590 537 484 420 556 458 l 266 537 l 266 420 m 611 613 b 617 696 615 638 617 665 b 615 745 617 713 616 730 l 266 745 l 266 613 m 601 821 b 401 938 573 911 505 938 l 266 938 l 266 821 "},"₽":{"ha":861,"x_min":0,"x_max":0,"o":"m 192 0 l 192 180 l 63 180 l 63 256 l 192 256 l 192 386 l 63 386 l 63 462 l 192 462 l 192 1014 l 417 1014 b 763 719 613 1014 763 949 b 382 386 763 522 656 386 l 280 386 l 280 256 l 601 256 l 601 180 l 280 180 l 280 0 m 369 462 b 678 715 595 462 678 553 b 411 938 678 890 581 938 l 280 938 l 280 462 "},"£":{"ha":861,"x_min":0,"x_max":0,"o":"m 321 469 b 331 352 326 433 331 395 b 233 76 331 223 295 135 l 749 76 l 749 0 l 113 0 l 113 67 b 246 349 213 130 246 224 b 235 469 246 394 242 433 l 113 469 l 113 545 l 217 545 b 185 744 201 608 185 667 b 474 1031 185 961 315 1031 b 758 774 620 1031 744 973 l 673 767 b 469 952 659 898 590 952 b 276 744 365 952 276 912 b 306 545 276 674 292 612 l 528 545 l 528 469 "},"₩":{"ha":861,"x_min":0,"x_max":0,"o":"m 179 1014 l 231 490 l 328 490 l 391 844 l 483 844 l 542 490 l 634 490 l 686 1014 l 768 1014 l 710 490 l 838 490 l 838 414 l 701 414 l 656 0 l 564 0 l 488 414 l 372 414 l 292 0 l 206 0 l 160 414 l 24 414 l 24 490 l 151 490 l 93 1014 m 262 172 l 271 172 l 314 414 l 238 414 m 475 490 l 437 698 l 427 698 l 387 490 m 594 172 l 602 172 l 626 414 l 554 414 "},"¥":{"ha":861,"x_min":0,"x_max":0,"o":"m 474 180 l 474 0 l 387 0 l 387 180 l 161 180 l 161 256 l 387 256 l 387 417 l 161 417 l 161 492 l 370 492 l 64 1014 l 160 1014 l 431 546 l 438 546 l 710 1014 l 797 1014 l 491 492 l 699 492 l 699 417 l 474 417 l 474 256 l 699 256 l 699 180 "},"∠":{"ha":861,"x_min":0,"x_max":0,"o":"m 116 0 l 104 28 l 454 703 l 531 670 l 226 85 l 231 76 l 722 76 l 722 0 "},"∐":{"ha":861,"x_min":0,"x_max":0,"o":"m 667 1014 l 667 -201 l 773 -201 l 773 -278 l 88 -278 l 88 -201 l 194 -201 l 194 1014 l 282 1014 l 282 -201 l 579 -201 l 579 1014 "},"∈":{"ha":861,"x_min":0,"x_max":0,"o":"m 132 507 b 573 1014 132 888 299 1014 l 705 1014 l 705 938 l 597 938 b 226 548 357 938 235 849 l 705 548 l 705 472 l 226 472 b 597 76 234 167 356 76 l 705 76 l 705 0 l 573 0 b 132 507 299 0 132 126 "},"≡":{"ha":861,"x_min":0,"x_max":0,"o":"m 132 784 l 729 784 l 729 708 l 132 708 m 132 187 l 729 187 l 729 110 l 132 110 m 132 485 l 729 485 l 729 409 l 132 409 "},"∃":{"ha":861,"x_min":0,"x_max":0,"o":"m 113 76 l 623 76 l 623 482 l 198 482 l 198 555 l 623 555 l 623 938 l 113 938 l 113 1014 l 710 1014 l 710 0 l 113 0 "},"∇":{"ha":861,"x_min":0,"x_max":0,"o":"m 74 1015 l 788 1015 l 788 938 l 479 1 l 383 1 l 74 938 m 428 106 l 435 106 l 699 932 l 699 938 l 165 938 l 165 932 "},"+":{"ha":861,"x_min":0,"x_max":0,"o":"m 118 487 l 389 487 l 389 768 l 472 768 l 472 487 l 743 487 l 743 410 l 472 410 l 472 129 l 389 129 l 389 410 l 118 410 "},"−":{"ha":861,"x_min":0,"x_max":0,"o":"m 132 487 l 729 487 l 729 410 l 132 410 "},"×":{"ha":861,"x_min":0,"x_max":0,"o":"m 191 745 l 432 504 l 672 744 l 726 690 l 486 450 l 727 209 l 670 152 l 429 393 l 190 153 l 135 208 l 375 447 l 134 688 "},"÷":{"ha":861,"x_min":0,"x_max":0,"o":"m 431 125 b 357 197 390 125 357 152 b 431 269 357 243 390 269 b 505 197 472 269 505 243 b 431 125 505 152 472 125 m 132 487 l 729 487 l 729 410 l 132 410 m 357 700 b 431 772 357 746 390 772 b 505 700 472 772 505 746 b 431 628 505 655 472 628 b 357 700 390 628 357 655 "},"=":{"ha":861,"x_min":0,"x_max":0,"o":"m 132 670 l 729 670 l 729 594 l 132 594 m 132 302 l 729 302 l 729 226 l 132 226 "},"≠":{"ha":861,"x_min":0,"x_max":0,"o":"m 302 0 l 347 226 l 132 226 l 132 302 l 362 302 l 420 594 l 132 594 l 132 670 l 435 670 l 480 896 l 559 896 l 515 670 l 729 670 l 729 594 l 499 594 l 441 302 l 729 302 l 729 226 l 426 226 l 381 0 "},">":{"ha":861,"x_min":0,"x_max":0,"o":"m 146 93 l 644 443 l 644 453 l 146 803 l 190 866 l 736 483 l 736 414 l 190 31 "},"<":{"ha":861,"x_min":0,"x_max":0,"o":"m 715 803 l 217 453 l 217 444 l 715 93 l 672 31 l 125 414 l 125 483 l 672 866 "},"≥":{"ha":861,"x_min":0,"x_max":0,"o":"m 118 217 l 743 217 l 743 141 l 118 141 m 626 690 l 626 699 l 113 939 l 145 1008 l 743 729 l 743 661 l 145 382 l 113 451 "},"≤":{"ha":861,"x_min":0,"x_max":0,"o":"m 118 141 l 118 217 l 743 217 l 743 141 m 118 729 l 716 1008 l 749 939 l 235 701 l 235 691 l 749 451 l 716 382 l 118 661 "},"±":{"ha":861,"x_min":0,"x_max":0,"o":"m 132 733 l 389 733 l 389 983 l 472 983 l 472 733 l 729 733 l 729 656 l 472 656 l 472 406 l 389 406 l 389 656 l 132 656 m 132 217 l 729 217 l 729 141 l 132 141 "},"≈":{"ha":861,"x_min":0,"x_max":0,"o":"m 584 513 b 281 717 416 513 397 717 b 176 532 224 717 193 669 l 98 542 b 278 798 115 735 185 798 b 581 594 445 798 465 594 b 685 779 638 594 668 642 l 763 769 b 584 513 746 576 678 513 m 98 126 b 278 383 115 320 185 383 b 581 178 445 383 465 178 b 685 364 638 178 668 226 l 763 354 b 584 98 746 160 678 98 b 281 302 416 98 397 302 b 176 117 224 302 193 254 l 98 126 "},"~":{"ha":861,"x_min":0,"x_max":0,"o":"m 584 306 b 281 510 416 306 397 510 b 176 324 224 510 192 462 l 98 334 b 278 590 115 528 185 590 b 581 386 445 590 465 386 b 685 572 638 386 669 434 l 763 562 b 584 306 746 368 678 306 "},"¬":{"ha":861,"x_min":0,"x_max":0,"o":"m 132 556 l 729 556 l 729 219 l 646 219 l 646 480 l 132 480 "},"^":{"ha":861,"x_min":0,"x_max":0,"o":"m 397 1063 l 465 1063 l 777 521 l 710 483 l 435 960 l 426 960 l 151 483 l 85 521 "},"∞":{"ha":861,"x_min":0,"x_max":0,"o":"m 42 449 b 231 678 42 640 154 678 b 435 537 317 678 384 632 b 631 678 471 617 535 678 b 819 449 705 678 819 643 b 630 219 819 257 707 219 b 426 360 544 219 477 265 b 230 219 390 281 326 219 b 42 449 156 219 42 254 m 113 449 b 230 294 113 340 169 294 b 392 439 306 294 363 365 b 231 603 339 569 285 603 b 113 449 172 603 113 560 m 469 458 b 630 294 522 328 576 294 b 749 449 690 294 749 337 b 631 603 749 557 692 603 b 469 458 555 603 498 532 "},"∧":{"ha":861,"x_min":0,"x_max":0,"o":"m 682 163 l 428 701 l 419 701 l 171 163 l 90 163 l 413 858 l 440 858 l 772 163 "},"∨":{"ha":861,"x_min":0,"x_max":0,"o":"m 179 851 l 433 313 l 442 313 l 690 851 l 772 851 l 448 156 l 421 156 l 89 851 "},"∫":{"ha":861,"x_min":0,"x_max":0,"o":"m 656 1031 b 456 803 564 1031 483 993 l 331 -44 b 197 -223 310 -190 269 -223 b 132 -209 172 -223 155 -219 l 118 -274 b 206 -294 146 -289 170 -294 b 406 -67 297 -294 378 -257 l 530 780 b 664 959 551 926 592 959 b 729 945 689 959 706 955 l 743 1010 b 656 1031 715 1025 691 1031 "},"∆":{"ha":861,"x_min":0,"x_max":0,"o":"m 788 0 l 74 0 l 74 76 l 383 1014 l 478 1014 l 788 76 m 697 76 l 697 83 l 434 909 l 426 909 l 163 83 l 163 76 "},"∏":{"ha":861,"x_min":0,"x_max":0,"o":"m 194 -278 l 194 938 l 88 938 l 88 1014 l 773 1014 l 773 938 l 667 938 l 667 -278 l 579 -278 l 579 938 l 282 938 l 282 -278 "},"∑":{"ha":861,"x_min":0,"x_max":0,"o":"m 451 368 l 118 957 l 127 1014 l 729 1014 l 729 938 l 227 938 l 547 370 l 225 -201 l 729 -201 l 729 -278 l 127 -278 l 118 -221 "},"√":{"ha":861,"x_min":0,"x_max":0,"o":"m 813 1014 l 813 938 l 622 938 l 310 -278 l 207 -278 l 8 300 l 81 325 l 250 -174 l 260 -174 l 565 1014 "},"∂":{"ha":861,"x_min":0,"x_max":0,"o":"m 441 1030 b 774 572 643 1030 774 928 b 381 -16 774 158 615 -16 b 102 300 185 -16 102 104 b 437 711 102 522 208 711 b 678 611 522 711 596 683 l 683 613 b 425 950 672 874 584 950 b 233 914 365 950 299 939 l 214 988 b 441 1030 284 1015 363 1030 m 196 306 b 389 60 196 140 272 60 b 685 540 543 60 683 190 b 458 635 617 603 536 635 b 196 306 284 635 196 486 "},"µ":{"ha":861,"x_min":0,"x_max":0,"o":"m 153 -278 l 153 694 l 239 694 l 239 231 b 397 58 239 93 314 58 b 622 208 498 58 574 110 l 622 694 l 708 694 l 708 0 l 627 0 l 627 122 l 623 122 b 370 -16 578 50 500 -16 b 239 19 313 -16 269 -3 l 239 -278 "},"%":{"ha":861,"x_min":0,"x_max":0,"o":"m 222 676 b 59 854 132 676 59 743 b 222 1031 59 964 132 1031 b 384 854 311 1031 384 964 b 222 676 384 743 311 676 m 665 1014 l 743 1014 l 196 0 l 118 0 m 131 854 b 222 736 131 776 170 736 b 313 854 273 736 313 776 b 222 970 313 932 273 970 b 131 854 170 970 131 932 m 477 162 b 640 339 477 272 550 339 b 802 162 729 339 802 272 b 640 -17 802 51 729 -17 b 477 162 550 -17 477 51 m 549 162 b 640 44 549 83 588 44 b 731 162 691 44 731 83 b 640 278 731 240 691 278 b 549 162 588 278 549 240 "},"‰":{"ha":861,"x_min":0,"x_max":0,"o":"m 222 676 b 59 854 132 676 59 743 b 222 1031 59 964 132 1031 b 384 854 311 1031 384 964 b 222 676 384 743 311 676 m 699 769 l 731 699 l 92 401 l 59 469 m 87 162 b 249 339 87 272 160 339 b 412 162 339 339 412 272 b 249 -17 412 51 339 -17 b 87 162 160 -17 87 51 m 131 854 b 222 736 131 776 170 736 b 313 854 273 736 313 776 b 222 970 313 932 273 970 b 131 854 170 970 131 932 m 158 162 b 249 44 158 83 198 44 b 341 162 301 44 341 83 b 249 278 341 240 301 278 b 158 162 198 278 158 240 m 477 162 b 640 339 477 272 550 339 b 802 162 729 339 802 272 b 640 -17 802 51 729 -17 b 477 162 550 -17 477 51 m 549 162 b 640 44 549 83 588 44 b 731 162 691 44 731 83 b 640 278 731 240 691 278 b 549 162 588 278 549 240 "},"∷":{"ha":861,"x_min":0,"x_max":0,"o":"m 214 160 b 104 267 153 160 104 200 b 214 375 104 336 153 375 b 324 267 276 375 324 336 b 214 160 324 200 276 160 m 104 747 b 214 855 104 816 153 855 b 324 747 276 855 324 816 b 214 640 324 680 276 640 b 104 747 153 640 104 680 m 537 267 b 647 375 537 336 585 375 b 757 267 708 375 757 336 b 647 160 757 200 708 160 b 537 267 585 160 537 200 m 537 747 b 647 855 537 816 585 855 b 757 747 708 855 757 816 b 647 640 757 680 708 640 b 537 747 585 640 537 680 "},"⊂":{"ha":861,"x_min":0,"x_max":0,"o":"m 213 347 b 524 76 213 125 340 76 l 705 76 l 705 0 l 500 0 b 119 347 292 0 119 77 b 500 694 119 617 292 694 l 705 694 l 705 619 l 524 619 b 213 347 340 619 213 569 "},"∴":{"ha":861,"x_min":0,"x_max":0,"o":"m 207 160 b 97 267 146 160 97 200 b 207 375 97 336 146 375 b 317 267 269 375 317 336 b 207 160 317 200 269 160 m 321 747 b 431 855 321 816 369 855 b 541 747 492 855 541 816 b 431 640 541 680 492 640 b 321 747 369 640 321 680 m 544 267 b 653 375 544 336 592 375 b 764 267 715 375 764 336 b 653 160 764 200 715 160 b 544 267 592 160 544 200 "},"∀":{"ha":861,"x_min":0,"x_max":0,"o":"m 138 694 l 228 505 l 634 505 l 725 694 l 811 694 l 471 0 l 390 0 l 50 694 m 427 89 l 435 89 l 599 432 l 263 432 "},"⊕":{"ha":861,"x_min":0,"x_max":0,"o":"m 215 542 l 392 542 l 392 750 l 469 750 l 469 542 l 647 542 l 647 473 l 469 473 l 469 265 l 392 265 l 392 473 l 215 473 m 42 508 b 431 1031 42 838 203 1031 b 819 508 657 1031 819 838 b 431 -17 819 176 657 -17 b 42 508 203 -17 42 176 m 90 508 b 431 28 90 195 237 28 b 771 508 624 28 771 195 b 431 985 771 819 624 985 b 90 508 237 985 90 819 "},"↑":{"ha":861,"x_min":0,"x_max":0,"o":"m 760 517 l 704 461 l 479 688 l 472 685 l 472 178 l 390 178 l 390 685 l 382 688 l 157 461 l 101 517 l 431 846 "},"↗":{"ha":861,"x_min":0,"x_max":0,"o":"m 672 283 l 593 283 l 594 603 l 587 606 l 228 247 l 170 305 l 529 664 l 526 672 l 206 670 l 206 749 l 672 749 "},"→":{"ha":861,"x_min":0,"x_max":0,"o":"m 440 177 l 383 233 l 610 458 l 608 466 l 100 466 l 100 548 l 608 548 l 610 556 l 383 781 l 440 837 l 768 507 "},"↘":{"ha":861,"x_min":0,"x_max":0,"o":"m 206 265 l 206 344 l 526 342 l 529 350 l 170 709 l 228 767 l 587 408 l 594 411 l 593 731 l 672 731 l 672 265 "},"↓":{"ha":861,"x_min":0,"x_max":0,"o":"m 101 497 l 157 553 l 382 326 l 390 328 l 390 836 l 472 836 l 472 328 l 479 326 l 704 553 l 760 497 l 431 168 "},"↙":{"ha":861,"x_min":0,"x_max":0,"o":"m 189 731 l 268 731 l 267 410 l 274 408 l 633 767 l 691 709 l 332 350 l 335 342 l 656 344 l 656 265 l 190 265 "},"←":{"ha":861,"x_min":0,"x_max":0,"o":"m 428 837 l 485 781 l 258 556 l 260 548 l 768 548 l 768 466 l 260 466 l 258 458 l 485 233 l 428 177 l 100 507 "},"↖":{"ha":861,"x_min":0,"x_max":0,"o":"m 655 749 l 655 670 l 335 672 l 332 664 l 691 305 l 633 247 l 274 606 l 267 603 l 268 283 l 189 283 l 190 749 "},"↔":{"ha":861,"x_min":0,"x_max":0,"o":"m 574 253 l 518 309 l 667 458 l 665 466 l 197 466 l 194 458 l 343 310 l 287 253 l 35 507 l 287 761 l 343 705 l 194 556 l 197 548 l 665 548 l 667 556 l 518 704 l 574 760 l 826 507 "},"↕":{"ha":861,"x_min":0,"x_max":0,"o":"m 176 363 l 233 419 l 381 270 l 390 273 l 390 741 l 382 744 l 233 594 l 177 651 l 431 903 l 685 651 l 628 594 l 480 744 l 472 741 l 472 273 l 479 270 l 628 419 l 684 363 l 431 111 "},"↩":{"ha":861,"x_min":0,"x_max":0,"o":"m 391 629 l 447 573 l 234 362 l 237 354 l 440 354 b 666 582 590 354 666 423 b 440 808 666 741 590 808 l 136 808 l 136 890 l 410 890 b 750 582 649 890 750 808 b 410 272 750 356 649 272 l 237 272 l 234 265 l 447 53 l 391 -3 l 76 313 "},"↪":{"ha":861,"x_min":0,"x_max":0,"o":"m 470 -3 l 414 53 l 627 265 l 624 272 l 451 272 b 111 582 213 272 111 356 b 451 890 111 808 213 890 l 725 890 l 725 808 l 422 808 b 195 582 271 808 195 741 b 422 354 195 423 271 354 l 624 354 l 627 362 l 414 573 l 470 629 l 785 313 "},"⬎":{"ha":861,"x_min":0,"x_max":0,"o":"m 132 476 l 188 532 l 413 305 l 421 308 l 421 772 l 83 772 l 83 856 l 503 856 l 503 308 l 510 305 l 735 532 l 792 476 l 462 147 "},"⬏":{"ha":861,"x_min":0,"x_max":0,"o":"m 792 538 l 735 482 l 510 709 l 503 706 l 503 158 l 83 158 l 83 242 l 421 242 l 421 706 l 413 709 l 188 482 l 132 538 l 462 867 "},"⬐":{"ha":861,"x_min":0,"x_max":0,"o":"m 69 476 l 126 532 l 351 305 l 358 308 l 358 856 l 778 856 l 778 772 l 440 772 l 440 308 l 448 305 l 673 532 l 729 476 l 399 147 "},"⬑":{"ha":861,"x_min":0,"x_max":0,"o":"m 729 538 l 673 482 l 448 709 l 440 706 l 440 242 l 778 242 l 778 158 l 358 158 l 358 706 l 351 709 l 126 482 l 69 538 l 399 867 "},"↺":{"ha":861,"x_min":0,"x_max":0,"o":"m 809 942 l 809 863 l 559 864 l 555 856 b 826 452 706 790 826 660 b 431 54 826 230 681 54 b 35 452 181 54 35 230 b 122 714 35 563 70 647 l 191 669 b 119 452 149 612 119 544 b 431 132 119 272 236 132 b 742 452 625 132 742 272 b 492 800 742 637 626 745 l 483 797 l 485 545 l 405 545 l 406 941 "},"↻":{"ha":861,"x_min":0,"x_max":0,"o":"m 456 545 l 376 545 l 378 797 l 369 800 b 119 452 235 745 119 637 b 431 132 119 272 236 132 b 742 452 625 132 742 272 b 670 669 742 544 713 612 l 739 714 b 826 452 791 647 826 563 b 431 54 826 230 681 54 b 35 452 181 54 35 230 b 306 856 35 660 156 790 l 302 864 l 52 863 l 52 942 l 455 941 "},"⇄":{"ha":861,"x_min":0,"x_max":0,"o":"m 294 540 l 350 483 l 201 335 l 203 327 l 797 327 l 797 245 l 203 245 l 201 237 l 350 88 l 294 32 l 42 286 m 64 769 l 658 769 l 660 777 l 511 926 l 567 982 l 819 728 l 567 474 l 511 531 l 660 679 l 658 687 l 64 687 "},"⇆":{"ha":861,"x_min":0,"x_max":0,"o":"m 567 32 l 511 88 l 660 237 l 658 245 l 64 245 l 64 327 l 658 327 l 660 335 l 511 483 l 567 540 l 819 286 m 294 982 l 350 926 l 201 777 l 203 769 l 797 769 l 797 687 l 203 687 l 201 679 l 350 531 l 294 474 l 42 728 "},"◊":{"ha":861,"x_min":0,"x_max":0,"o":"m 389 1014 l 472 1014 l 772 507 l 472 0 l 389 0 l 89 507 m 425 75 l 435 75 l 684 507 l 435 939 l 425 939 l 177 507 "},"▲":{"ha":861,"x_min":0,"x_max":0,"o":"m 430 845 l 808 184 l 53 184 "},"▶":{"ha":861,"x_min":0,"x_max":0,"o":"m 788 506 l 127 128 l 127 883 "},"▼":{"ha":861,"x_min":0,"x_max":0,"o":"m 431 167 l 53 828 l 808 828 "},"◀":{"ha":861,"x_min":0,"x_max":0,"o":"m 73 505 l 734 883 l 734 128 "},"▴":{"ha":861,"x_min":0,"x_max":0,"o":"m 430 704 l 642 333 l 218 333 "},"▸":{"ha":861,"x_min":0,"x_max":0,"o":"m 643 506 l 272 294 l 272 718 "},"▾":{"ha":861,"x_min":0,"x_max":0,"o":"m 431 308 l 218 679 l 642 679 "},"◂":{"ha":861,"x_min":0,"x_max":0,"o":"m 218 506 l 589 719 l 589 294 "},"̈":{"ha":0,"x_min":0,"x_max":0,"o":"m 166 976 l 260 1067 l 353 976 l 260 886 m 602 1067 l 695 976 l 602 886 l 508 976 "},"̇":{"ha":0,"x_min":0,"x_max":0,"o":"m 335 976 l 431 1067 l 526 976 l 431 886 "},"̀":{"ha":0,"x_min":0,"x_max":0,"o":"m 224 1109 l 321 1109 l 475 885 l 399 885 "},"́":{"ha":0,"x_min":0,"x_max":0,"o":"m 638 1109 l 540 1109 l 386 885 l 462 885 "},"̋":{"ha":0,"x_min":0,"x_max":0,"o":"m 617 1109 l 708 1109 l 585 885 l 516 885 m 367 1109 l 456 1109 l 335 885 l 265 885 "},"̂":{"ha":0,"x_min":0,"x_max":0,"o":"m 397 1109 l 464 1109 l 654 885 l 570 885 l 431 1060 l 291 885 l 207 885 "},"̌":{"ha":0,"x_min":0,"x_max":0,"o":"m 397 885 l 464 885 l 654 1109 l 570 1109 l 431 933 l 291 1109 l 207 1109 "},"̆":{"ha":0,"x_min":0,"x_max":0,"o":"m 245 981 l 245 1109 l 308 1109 l 308 1008 l 370 941 l 491 941 l 553 1008 l 553 1109 l 616 1109 l 616 982 l 533 880 l 328 880 "},"̊":{"ha":0,"x_min":0,"x_max":0,"o":"m 273 952 l 273 1045 l 370 1154 l 491 1154 l 588 1046 l 588 953 l 491 844 l 370 844 m 403 905 l 458 905 l 523 978 l 523 1019 l 458 1093 l 403 1093 l 338 1019 l 338 978 "},"̃":{"ha":0,"x_min":0,"x_max":0,"o":"m 507 941 l 558 941 l 612 1011 l 612 1095 l 674 1095 l 674 990 l 591 880 l 467 880 l 360 1034 l 309 1034 l 255 964 l 255 880 l 192 880 l 192 985 l 276 1095 l 399 1095 "},"̄":{"ha":0,"x_min":0,"x_max":0,"o":"m 217 999 l 644 999 l 644 930 l 217 930 "},"̣":{"ha":0,"x_min":0,"x_max":0,"o":"m 335 -289 l 431 -199 l 526 -289 l 431 -379 "},"̦":{"ha":0,"x_min":0,"x_max":0,"o":"m 366 -217 l 515 -217 l 515 -366 l 398 -519 l 346 -491 l 442 -366 l 366 -366 "},"̧":{"ha":0,"x_min":0,"x_max":0,"o":"m 357 -330 l 458 -330 l 518 -281 l 518 -228 l 458 -180 l 385 -180 l 385 33 l 450 33 l 450 -117 l 484 -117 l 579 -194 l 579 -316 l 485 -392 l 357 -392 "},"̨":{"ha":0,"x_min":0,"x_max":0,"o":"m 374 26 l 431 0 l 328 -105 l 328 -182 l 374 -215 l 431 -215 l 431 -278 l 353 -278 l 257 -215 l 257 -85 "},"¨":{"ha":861,"x_min":0,"x_max":0,"o":"m 166 976 l 260 1067 l 353 976 l 260 886 m 602 1067 l 695 976 l 602 886 l 508 976 "},"˙":{"ha":861,"x_min":0,"x_max":0,"o":"m 335 976 l 431 1067 l 526 976 l 431 886 "},"`":{"ha":861,"x_min":0,"x_max":0,"o":"m 224 1109 l 321 1109 l 475 885 l 399 885 "},"´":{"ha":861,"x_min":0,"x_max":0,"o":"m 638 1109 l 540 1109 l 386 885 l 462 885 "},"˝":{"ha":861,"x_min":0,"x_max":0,"o":"m 617 1109 l 708 1109 l 585 885 l 516 885 m 367 1109 l 456 1109 l 335 885 l 265 885 "},"ˆ":{"ha":861,"x_min":0,"x_max":0,"o":"m 397 1109 l 464 1109 l 654 885 l 570 885 l 431 1060 l 291 885 l 207 885 "},"ˇ":{"ha":861,"x_min":0,"x_max":0,"o":"m 397 885 l 464 885 l 654 1109 l 570 1109 l 431 933 l 291 1109 l 207 1109 "},"˘":{"ha":861,"x_min":0,"x_max":0,"o":"m 245 981 l 245 1109 l 308 1109 l 308 1008 l 370 941 l 491 941 l 553 1008 l 553 1109 l 616 1109 l 616 982 l 533 880 l 328 880 "},"˚":{"ha":861,"x_min":0,"x_max":0,"o":"m 273 952 l 273 1045 l 370 1154 l 491 1154 l 588 1046 l 588 953 l 491 844 l 370 844 m 403 905 l 458 905 l 523 978 l 523 1019 l 458 1093 l 403 1093 l 338 1019 l 338 978 "},"˜":{"ha":861,"x_min":0,"x_max":0,"o":"m 507 941 l 558 941 l 612 1011 l 612 1095 l 674 1095 l 674 990 l 591 880 l 467 880 l 360 1034 l 309 1034 l 255 964 l 255 880 l 192 880 l 192 985 l 276 1095 l 399 1095 "},"¯":{"ha":861,"x_min":0,"x_max":0,"o":"m 217 999 l 644 999 l 644 930 l 217 930 "},"¸":{"ha":861,"x_min":0,"x_max":0,"o":"m 357 -330 l 458 -330 l 518 -281 l 518 -228 l 458 -180 l 385 -180 l 385 33 l 450 33 l 450 -117 l 484 -117 l 579 -194 l 579 -316 l 485 -392 l 357 -392 "},"˛":{"ha":861,"x_min":0,"x_max":0,"o":"m 374 26 l 431 0 l 328 -105 l 328 -182 l 374 -215 l 431 -215 l 431 -278 l 353 -278 l 257 -215 l 257 -85 "},"Ω":{"ha":861,"x_min":0,"x_max":0,"o":"m 431 949 b 165 595 273 949 165 851 b 330 173 165 397 230 281 l 330 0 l 89 0 l 89 74 l 288 74 l 288 137 b 69 608 183 221 69 358 b 431 1031 69 894 218 1031 b 792 608 643 1031 792 894 b 573 137 792 358 678 221 l 573 74 l 772 74 l 772 0 l 531 0 l 531 173 b 697 595 631 281 697 397 b 431 949 697 851 588 949 "},"":{"ha":861,"x_min":0,"x_max":0,"o":"m 153 378 l 153 694 l 240 694 l 240 401 l 431 84 l 622 398 l 622 694 l 708 694 l 708 378 l 474 0 l 387 0 m 960 76 l 1255 76 l 1255 933 l 998 842 l 998 922 l 1255 1014 l 1342 1014 l 1342 76 l 1638 76 l 1638 0 l 960 0 m 2043 86 b 2153 194 2043 155 2092 194 b 2263 86 2215 194 2263 155 b 2153 -22 2263 19 2215 -22 b 2043 86 2092 -22 2043 19 m 2682 76 l 2977 76 l 2977 933 l 2720 842 l 2720 922 l 2977 1014 l 3065 1014 l 3065 76 l 3360 76 l 3360 0 l 2682 0 m 3535 646 l 3799 1014 l 3965 1014 l 4215 646 l 4215 375 l 3951 0 l 3799 0 l 3535 375 m 3838 76 l 3912 76 l 4128 396 l 4128 625 l 3917 938 l 3843 938 l 3622 625 l 3622 396 m 3807 608 l 3944 608 l 3944 407 l 3807 407 m 4404 76 l 4699 76 l 4699 933 l 4442 842 l 4442 922 l 4699 1014 l 4787 1014 l 4787 76 l 5082 76 l 5082 0 l 4404 0 "}}}
